<svg width="572" height="215" viewBox="0 0 572 215" fill="none" xmlns="http://www.w3.org/2000/svg">
<g clip-path="url(#clip0)">
<path d="M176.5 182.8L175.3 181.9C174.6 181.5 173.9 181.1 173.2 180.7L167.1 177.7C158.1 173.5 149 169.5 139.9 165.6C126.8 160 113.6 154.5 100.4 149.1C91.8 145.7 83.2 142.3 74.5 139.1C65.2 135.7 56 132.4 46.7 129.1C44 128.1 41.3 127.1 38.6 126.2C38 126 37.4 125.7 37 125C37.8 122 38.7 119 39.5 116C39.6 115.7 39.8 115.3 40 115V115.1C40 114.6 40 114.2 40.2 113.7L42.3 106C42.8 104.3 43.3 102.5 43.7 100.8C44 99.7 44.6 99.1 45.6 98.8C45.7 98.7 45.8 98.7 45.9 98.7C51.9 96.6 57.9 94.5 63.8 92.3C69.5 90.3 75.2 88.1 80.9 86C82.9 85.3 84.9 84.5 86.8 83.8C91.1 82 95.5 80.3 99.8 78.6L117 71.4C121.1 69.6 125.2 67.7 129.3 65.7C134.3 63.3 139.4 60.8 144.4 58.2C147.6 56.4 150.9 54.7 154 52.7C154.9 52.1 155.9 51.6 156.6 50.8C156.4 50.8 156.2 50.9 156 50.9C156.2 50.6 156.6 50.4 157 50.5C157 50.4 157 50.4 157 50.3V50.1C157.3 50.1 157.5 50.1 157.8 50C157.8 49.9 157.8 49.9 157.8 49.8L158.1 49.3C158.4 48.9 158.8 48.5 159.4 48.5C159.6 48.1 159.8 47.7 160.1 47.2H159.5C159.1 47.5 158.8 47.8 158.1 48C158.6 47.5 159 47.3 159.5 47.2C159.4 47 159.3 46.8 159.1 46.9C158.7 47.1 158.2 47.3 157.8 47.6C155.5 49.2 153 50.5 150.5 51.8C146.2 54 141.8 56.1 137.4 58.1C133.4 60 129.5 61.8 125.5 63.5L116.1 67.7C112.8 69.1 109.5 70.6 106.2 72L92.8 77.4C88.8 79 84.7 80.5 80.7 82.1C80 82.3 79.3 82.7 78.6 82.9L73.6 84.7C69.1 86.3 64.5 88 59.9 89.6C56.2 91 52.4 92.3 48.7 93.6L46.9 94.2C46.5 94.3 46.1 94.3 45.8 93.8C45.9 93.5 45.9 93.1 46 92.8C46.4 91.6 46.8 90.4 47.1 89.2C47.2 88.9 47.4 88.7 47.5 88.5C47.7 87.2 47.9 85.9 48.6 84.7C48.7 83.4 49.2 82.2 49.7 81V80.9C49.7 80.6 49.7 80.2 49.8 79.8C50.1 78.7 50.5 77.7 50.8 76.7L53.9 66.4C54.7 63.6 55.6 60.8 56.4 57.9C56.7 56.9 57.1 55.8 57.4 54.7L57.7 52.6C57.7 52.1 57.6 51.6 57.3 51.2C57 50.7 56.4 50.7 56.1 51.2C56 51.5 55.8 51.7 55.7 52C55.2 53 54.8 54 54.3 54.9C54.1 55.3 53.9 55.7 53.8 56.2C52.2 60.3 50.7 64.4 49.2 68.6C47.8 72.7 46.5 76.8 45.2 80.9C44 84.6 42.9 88.4 41.7 92.1L40.8 95.2C40.5 96.1 40 96.6 39.2 96.8L25.1 101.6C22.2 102.6 19.3 103.5 16.4 104.4C13 105.5 9.7 106.7 6.4 108C4.8 108.7 3.2 109.4 1.7 110.3C1.3 110.6 0.9 110.9 0.6 111.2C-0.1 111.9 -0.2 112.7 0.3 113.6C0.6 114 1 114.5 1.4 114.9C2.9 116.3 4.7 117.2 6.6 117.9L14.8 120.6C20 122.3 25.2 124.1 30.4 125.8C30.6 125.8 30.7 125.9 30.9 126C31.5 126.3 31.7 126.5 31.5 127.1C31.4 127.8 31.2 128.4 31 129.1L30.7 129.9C30.2 131.7 29.8 133.4 29.3 135.1C29 136 28.8 136.9 28.5 137.8C28.1 139.5 27.7 141.1 27.2 142.8C26.8 144.5 26.3 146.2 25.8 147.9C25.2 149.8 24.8 151.7 24.2 153.6L22.7 158.2C22.6 158.7 22.4 159.3 22.3 159.9C22.3 160.1 22.4 160.4 22.6 160.6C22.8 160.8 23.1 160.6 23.3 160.5C23.5 160.8 23.7 161.1 23.8 161.4C24.2 161.9 24.5 162 24.8 161.5C25.1 161.1 25.3 160.6 25.5 160.2L27.3 154.7C28 152.7 28.6 150.8 29.2 148.8C29.7 147.6 29.9 146.3 30.6 145.2C30.6 144.2 31 143.3 31.3 142.4C31.8 140.2 32.4 137.9 33.3 135.8C33.2 136.9 32.8 138 32.5 139.1C32.3 139.9 32.1 140.8 31.8 141.6C31.7 141.9 31.5 142.2 31.3 142.4C31.3 143.4 31.1 144.3 30.6 145.2C30.4 145.9 30.3 146.6 30.1 147.3C29.7 148.7 29.2 150.1 28.8 151.5L25.8 160.6C25.7 160.9 25.5 161.1 25.8 161.4C26.1 161.2 26.2 160.9 26.3 160.6L28.1 155.1C28.4 154.4 28.7 153.8 29 153.2L29.3 151.5C30 149.4 30.7 147.4 31.3 145.3C32.6 141.1 33.7 136.9 34.9 132.7C35.1 132 35.2 131.3 35.8 130.8L36 130.5C35.5 129.7 35.9 129 36.2 128.4C36.9 128.1 37.5 128.3 38.1 128.5C40.7 129.5 43.3 130.4 45.9 131.4C51.9 133.5 57.8 135.7 63.8 137.8L78.4 143.2C84.4 145.4 90.4 147.7 96.3 150.1L113 156.7C119.9 159.5 126.8 162.4 133.6 165.2L147.8 171.2C151.1 172.6 154.3 174.1 157.5 175.5C162.4 177.5 167.2 179.7 172 182C173.1 182.5 174.2 183.1 175.1 184C175.3 184.1 175.5 184.2 175.7 184.3H176.1C176.5 184.2 177 184.3 177.1 183.8C177.2 183.3 176.8 183 176.5 182.8ZM45.9 90.9V91H45.8L45.9 90.9ZM35.8 112.4C35.3 114.4 34.6 116.4 34 118.5L32.8 122.7C32.8 122.9 32.7 123 32.6 123.2C32.4 123.7 32.1 123.8 31.6 123.7C31 123.5 30.4 123.2 29.7 123C22.6 120.5 15.4 118.2 8.2 115.9C7.3 115.6 6.4 115.3 5.5 114.9C4.9 114.7 4.8 114.2 5.2 113.7C5.3 113.6 5.4 113.4 5.6 113.3C5.8 113.1 6.1 112.9 6.3 112.8L7.6 112.1C10 110.9 12.5 110 15 109.2C20.1 107.4 25.3 105.7 30.5 103.9L37.6 101.5C37.9 101.4 38.2 101.2 38.7 101.5C38.8 101.9 38.7 102.3 38.5 102.7C37.6 106 36.8 109.2 35.8 112.4ZM40.8 108.7C40.8 108.2 40.8 107.8 41.1 107.3C41.2 107.9 40.9 108.3 40.8 108.7C40.6 110.1 40.1 111.4 39.7 112.9C39.7 111.6 40 110.2 40.8 108.7ZM1.9 112.2H1.8C1.8 112.1 1.8 112.1 1.9 112.1H2C1.9 112.1 1.9 112.2 1.9 112.2ZM4.1 113.4C4 113.4 4 113.3 4 113.3V113.2C4.1 113.2 4.1 113.2 4.2 113.3L4.1 113.4ZM37.4 121C37.4 121.2 37.3 121.3 37.2 121.4H37.1C37.1 121.3 37.1 121.1 37.2 121C37.2 120.9 37.3 120.8 37.4 120.8C37.4 120.9 37.5 120.9 37.4 121ZM36.8 123.2L36.5 124.2C36.4 124.3 36.4 124.3 36.4 124.4C36.4 124.3 36.4 124.3 36.4 124.2L36.7 123.2L36.8 123.1V123.2ZM35.1 129.2C35.1 129.2 35 129.2 34.9 129.2L35.2 128.4C35.3 128.4 35.3 128.4 35.4 128.5L35.1 129.2ZM34 132.8C34.1 132.4 34 132 34.5 131.6C34.5 132.2 34.3 132.5 34 132.8ZM116.261 110.2C115.661 109.7 115.561 109.7 114.961 110.2C114.861 110.3 114.761 110.4 114.561 110.5C112.861 111.9 111.361 113.5 109.761 115C108.061 116.6 106.361 118.2 104.761 119.9C103.261 121.3 101.761 122.8 100.261 124.3C98.5609 126 96.8609 127.8 95.2609 129.5L94.3609 130.2C94.1609 130.4 94.1609 130.4 93.6609 130H93.7609C93.7609 129.4 93.8609 128.8 94.1609 128.3C94.3609 126.9 94.7609 125.6 95.4609 124.3C95.4609 123.8 95.6609 123.3 95.8609 122.9L97.3609 118.8C97.4609 118.5 97.5609 118.2 97.8609 118C97.9609 117.9 97.9609 117.7 98.0609 117.6C98.1609 117.2 98.2609 116.8 98.5609 116.5H98.4609C98.5609 116.2 98.5609 116 98.7609 115.8C98.7609 115.4 98.9609 115 99.1609 114.7C99.3609 114.1 99.5609 113.6 99.8609 113.1V113.2C99.8609 113 99.9609 112.9 100.061 112.8C100.061 112.2 100.361 111.7 100.761 111.2C100.761 110.5 101.161 109.8 101.561 109.3C101.661 109.1 101.661 108.9 101.761 108.6C101.861 108.5 101.961 108.3 101.961 108.2L101.461 107.9L101.561 107.5C101.761 107 101.961 106.6 102.061 106.1V106.5C102.361 106.2 102.461 105.9 102.461 105.6L102.161 106C102.261 105.7 102.361 105.5 102.561 105.2C103.261 104 103.661 102.6 104.161 101.2C104.461 100.2 104.261 99.5 103.361 98.9C103.161 98.7 102.961 98.6 102.661 98.4C102.161 98.1 101.861 98.1 101.361 98.5C100.961 98.8 100.561 99.2 100.261 99.6C98.5609 101.2 97.1609 103.2 95.5609 104.9V105L95.1609 104.8C94.4609 105.9 93.6609 106.9 92.9609 108C92.4609 108.6 92.3609 108.6 91.7609 108.4C91.1609 108.2 90.5609 108 89.9609 108C87.7609 107.9 85.9609 108.6 84.1609 109.8C82.5609 110.9 81.1609 112.4 79.9609 114C79.5609 114.6 79.1609 115.3 78.7609 116.1C78.4609 116.8 78.2609 117.5 78.1609 118.4C78.0609 118.8 78.0609 119.2 78.2609 119.5C78.7609 120.6 79.4609 121.5 80.6609 121.9C81.2609 122.1 81.7609 122.1 82.3609 122C83.1609 121.8 83.9609 121.5 84.6609 121.1C87.8609 119.3 90.5609 116.9 92.8609 114.1C92.9609 114 92.9609 113.9 93.0609 113.9C92.9609 113.9 92.9609 113.9 92.8609 113.9L93.0609 113.6C93.1609 113.6 93.2609 113.5 93.2609 113.4C93.4609 113.2 93.5609 113 93.6609 112.8H93.7609C93.7609 112.7 93.8609 112.6 93.9609 112.6V112.8C94.0609 112.7 94.0609 112.6 94.1609 112.6V112.5C94.3609 112.5 94.6609 112.5 94.6609 112.8V114C94.6609 114.4 94.6609 114.7 95.0609 114.8C95.1609 114.9 95.2609 115 95.1609 115.2C95.1609 115.4 95.0609 115.7 94.9609 115.9C94.5609 117 94.1609 118 93.8609 119.1C92.7609 122.1 91.5609 125.1 90.8609 128.2C90.6609 129 90.5609 129.7 90.5609 130.5C90.5609 131.4 90.8609 132 91.4609 132.5L91.9609 132.8C92.7609 133.5 93.6609 133.5 94.5609 133.1C95.0609 132.8 95.5609 132.5 95.9609 132.1C97.6609 130.6 99.3609 129 100.861 127.2C101.961 126.1 102.961 125 103.961 123.8C105.661 122 107.361 120.2 108.961 118.4C109.261 118.2 109.561 118 109.661 117.6C109.161 117.8 108.861 118.2 108.561 118.6C108.261 118.8 108.061 119.2 107.661 119.3C107.561 119.4 107.561 119.5 107.461 119.5C107.361 119.6 107.361 119.7 107.261 119.7C107.261 119.6 107.361 119.6 107.461 119.5C107.461 119.4 107.561 119.3 107.661 119.3C107.761 119.1 107.861 118.9 107.961 118.8C109.461 117.3 110.961 115.9 112.361 114.4L112.961 114.1C112.961 114 113.061 113.9 113.161 113.9C113.161 113.8 113.261 113.7 113.361 113.7L113.561 113.4C113.661 113.4 113.761 113.3 113.761 113.2V113.4C114.161 113.3 114.361 113.1 114.561 112.9L116.361 111.2C116.761 110.8 116.761 110.6 116.261 110.2ZM100.661 100.4C100.661 100.3 100.761 100.3 100.761 100.2C100.861 100.1 100.861 100.1 100.961 100.2L100.861 100.3C100.861 100.3 100.761 100.4 100.661 100.4C100.561 100.7 100.361 100.9 100.061 101C100.261 100.8 100.361 100.6 100.661 100.4ZM98.0609 103.4C98.0609 103.3 98.1609 103.2 98.2609 103.1C98.3609 102.7 98.6609 102.4 98.9609 102.2C99.1609 101.8 99.4609 101.5 99.8609 101.3C99.9609 101.2 99.9609 101.1 100.061 101.1C100.061 101.1 100.061 101.2 100.061 101.3H99.8609C99.8609 101.4 99.8609 101.5 99.9609 101.6C99.9609 101.6 100.061 101.5 100.161 101.5L99.9609 101.8C99.8609 102.1 99.6609 102.3 99.3609 102.4C99.2609 102.5 99.2609 102.6 99.1609 102.7V102.5C99.0609 102.6 98.9609 102.7 98.9609 102.8C98.8609 103 98.6609 103.2 98.3609 103.2L98.1609 103.5C98.0609 103.8 97.7609 103.9 97.5609 104L98.0609 103.4ZM99.1609 102.5C99.2609 102.4 99.2609 102.4 99.3609 102.4C99.2609 102.4 99.2609 102.4 99.1609 102.3V102.5ZM95.0609 110.2C95.0609 110.2 94.9609 110.3 94.8609 110.2V110C95.0609 109.8 95.1609 109.5 95.3609 109.3C95.3609 109.3 95.4609 109.3 95.4609 109.2L95.8609 108.8C95.9609 108.7 95.9609 108.5 96.0609 108.3L96.3609 108V108.1C96.4609 108 96.4609 107.9 96.4609 107.9L96.6609 107.6C96.8609 107.5 97.0609 107.4 97.1609 107.2C97.0609 107.2 97.0609 107.2 96.9609 107.3L97.2609 107H97.3609C96.9609 107.7 96.4609 108.3 95.9609 108.9C95.7609 109.4 95.4609 109.8 95.0609 110.2ZM97.1609 107.2C97.1609 107.1 97.2609 107.1 97.2609 107C97.1609 107.1 97.1609 107.1 97.1609 107.2ZM96.0609 113.2C96.0609 113.3 95.9609 113.4 95.8609 113.5C95.5609 113.5 95.6609 113.3 95.6609 113.2C95.5609 112.8 95.5609 112.4 95.4609 112C95.2609 111.3 95.2609 110.8 95.5609 110.3L97.8609 107.1C98.4609 107.5 96.3609 112.6 96.0609 113.2ZM100.961 109C100.961 108.6 101.061 108.3 101.361 108C101.361 108.4 101.161 108.7 100.961 109ZM102.061 108.2H101.961C101.961 108.3 101.961 108.5 102.061 108.6V108.2ZM83.2609 118.5C82.6609 119 81.9609 119.3 81.3609 119.6C80.9609 119.7 80.6609 119.5 80.7609 119.1C80.9609 118.1 81.1609 117 81.7609 116.1C82.3609 115.1 82.9609 114.2 83.8609 113.5C84.0609 113.2 84.3609 112.9 84.3609 112.5C83.9609 112.7 83.6609 113.1 83.3609 113.4C83.1609 113.6 82.9609 113.9 82.5609 114.1C82.4609 114.5 82.2609 114.8 81.9609 114.9C82.0609 114.6 82.2609 114.2 82.5609 114.1C83.2609 112.8 84.2609 111.9 85.3609 111.2C85.5609 111 85.7609 110.9 86.0609 110.8C85.9609 111.1 85.7609 111.2 85.4609 111.3C85.2609 111.7 84.7609 111.9 84.5609 112.3C84.9609 112.3 85.2609 112 85.5609 111.8C86.3609 111.2 87.2609 110.6 88.1609 110.2C88.9609 109.8 89.8609 109.6 90.6609 109.6H91.1609C91.3609 109.7 91.4609 109.9 91.3609 110C91.0609 110.4 90.8609 110.8 90.5609 111.1L88.6609 113.5C87.0609 115.3 85.2609 117 83.2609 118.5ZM100.661 109.9L100.561 110C100.461 110 100.461 109.9 100.461 109.8C100.561 109.7 100.661 109.7 100.661 109.6V109.9ZM82.8609 112.1H83.0609C82.9609 112 82.8609 112 82.8609 111.9C83.1609 111.3 83.6609 110.8 84.2609 110.6L84.5609 110.4C84.6609 110.2 84.8609 110.2 84.9609 110.2C84.8609 110.3 84.7609 110.4 84.5609 110.4C84.4609 110.5 84.4609 110.6 84.3609 110.6C84.1609 111.3 83.5609 111.7 83.0609 112.1C82.9609 112.2 82.8609 112.3 82.8609 112.3V112.1ZM92.8609 110.4C92.7609 110.4 92.6609 110.5 92.6609 110.6H92.4609C92.4609 110.2 92.5609 110.2 92.8609 110.4ZM114.061 111.6C114.361 111.3 114.661 110.9 115.161 110.6C114.761 111.3 114.761 111.3 114.061 111.6ZM87.8609 116.3C87.5609 116.4 87.2609 116.7 86.9609 116.7C87.5609 115.8 88.3609 115.2 89.0609 114.4C89.4609 113.9 89.8609 113.4 90.3609 112.9C90.4609 112.9 90.5609 112.8 90.5609 112.7C90.7609 112.4 90.9609 112.1 91.2609 111.9C91.3609 111.8 91.4609 111.7 91.5609 111.7C91.6609 111.3 91.8609 111 92.1609 110.8C92.1609 111 92.1609 111.1 92.1609 111.3H92.4609C92.3609 111.3 92.2609 111.4 92.1609 111.4V111.3C92.0609 111.3 92.0609 111.4 91.9609 111.5H92.1609C92.1609 111.7 91.9609 111.9 91.7609 112.1C91.7609 112 91.7609 111.8 91.7609 111.7H91.5609C91.4609 111.8 91.4609 111.9 91.3609 111.9C91.3609 112.1 91.3609 112.2 91.3609 112.3H91.5609C91.4609 112.4 91.3609 112.5 91.3609 112.5V112.3C91.2609 112.4 91.1609 112.5 91.0609 112.5C91.0609 112.6 90.9609 112.7 90.8609 112.8C90.9609 112.8 91.0609 112.8 91.0609 112.8V112.6C91.1609 112.6 91.2609 112.6 91.2609 112.6L91.0609 112.8C91.0609 113 90.8609 113.3 90.6609 113.4C90.5609 113.5 90.5609 113.6 90.4609 113.6V113.4C90.3609 113.5 90.2609 113.6 90.2609 113.7C90.2609 113.7 90.3609 113.7 90.4609 113.7L90.2609 113.9C90.1609 114 90.1609 114.1 90.0609 114.1V113.9C89.9609 113.9 89.8609 114 89.7609 114.1H89.8609H89.9609C89.8609 114.6 89.5609 114.9 89.1609 115.2C89.0609 115.2 88.9609 115.3 88.9609 115.4V115.2C88.8609 115.2 88.7609 115.3 88.6609 115.4H88.8609C88.8609 115.5 88.7609 115.5 88.7609 115.6C88.6609 115.5 88.6609 115.5 88.6609 115.4C88.6609 115.5 88.5609 115.5 88.4609 115.6H88.6609C88.6609 115.7 88.5609 115.7 88.4609 115.8C88.3609 115.9 88.3609 116 88.2609 116V115.8C88.1609 115.9 88.0609 116 88.0609 116.1H88.2609C88.1609 116.1 88.1609 116.2 88.0609 116.2V116.1C87.9609 116.1 87.8609 116.2 87.8609 116.3ZM93.8609 111.9C92.5609 113.5 91.2609 115.1 89.8609 116.5C89.5609 116.8 89.3609 117 88.9609 117.2L88.7609 117.4C88.6609 117.6 88.4609 117.7 88.2609 117.8C88.3609 117.5 88.4609 117.4 88.6609 117.3C88.7609 117.2 88.8609 117.2 88.8609 117.1L89.3609 116.5C90.7609 115 92.1609 113.5 93.3609 111.9L93.7609 111.5C93.7609 111.4 93.9609 111.4 93.9609 111.4C94.0609 111.5 94.0609 111.6 93.9609 111.7C93.9609 111.8 93.9609 111.8 93.8609 111.9ZM99.6609 112.1C99.6609 111.9 99.6609 111.7 99.8609 111.5C99.7609 111.7 99.7609 111.9 99.6609 112.1ZM82.7609 111.9C82.7609 112 82.7609 112 82.7609 112.1H82.6609C82.6609 112 82.7609 112 82.7609 111.9ZM82.5609 112.1C82.5609 112.2 82.5609 112.3 82.5609 112.3H82.7609C82.7609 112.4 82.6609 112.5 82.5609 112.5C82.5609 112.5 82.5609 112.4 82.5609 112.3H82.3609C82.4609 112.3 82.5609 112.2 82.5609 112.1ZM82.3609 112.4V112.5H82.1609C82.2609 112.5 82.2609 112.4 82.3609 112.4ZM81.9609 112.8C82.0609 112.7 82.0609 112.6 82.1609 112.6C82.1609 112.6 82.1609 112.7 82.1609 112.8H82.3609C82.3609 112.7 82.3609 112.6 82.3609 112.6H82.5609C82.4609 112.6 82.4609 112.7 82.3609 112.8L82.1609 113C82.1609 112.9 82.1609 112.9 82.1609 112.8H81.9609C81.9609 112.9 81.9609 112.9 81.9609 113H81.7609C81.7609 112.9 81.8609 112.8 81.9609 112.8ZM90.6609 113C90.7609 112.9 90.8609 112.9 90.8609 112.8H90.7609C90.6609 112.9 90.6609 112.9 90.6609 113ZM90.5609 113.1C90.4609 113.2 90.4609 113.3 90.4609 113.4H90.6609C90.6609 113.3 90.6609 113.1 90.6609 113L90.5609 113.1ZM113.561 113.6C113.661 113.6 113.661 113.5 113.761 113.4C113.661 113.4 113.661 113.4 113.561 113.4V113.6ZM111.161 114.7C110.861 115 110.561 115.2 110.161 115.3C110.761 114.6 111.361 113.9 112.261 113.5L111.161 114.7ZM90.0609 113.9C90.0609 113.9 90.1609 113.9 90.2609 113.9V113.7C90.1609 113.7 90.0609 113.8 90.0609 113.9ZM93.0609 113.8C93.1609 113.8 93.2609 113.7 93.2609 113.7C93.2609 113.7 93.1609 113.7 93.0609 113.7V113.8ZM113.561 113.7C113.461 113.7 113.461 113.7 113.361 113.7V113.8C113.461 113.8 113.461 113.7 113.561 113.7ZM113.361 113.9C113.261 113.9 113.161 113.9 113.161 113.9V114.1C113.161 114 113.261 113.9 113.361 113.9ZM98.2609 115.1C98.3609 114.7 98.4609 114.4 98.7609 114.1C98.6609 114.5 98.5609 114.8 98.2609 115.1ZM112.061 115.1C112.561 114.9 112.861 114.6 113.161 114.1C113.061 114.1 112.961 114.1 112.961 114.1L112.061 115.1ZM99.2609 114.7H99.1609V114.8C99.1609 114.8 99.1609 114.7 99.2609 114.7ZM81.9609 115C81.8609 115.2 81.7609 115.4 81.4609 115.5C81.6609 115.3 81.7609 115.1 81.9609 115ZM111.861 115.4C111.861 115.3 111.961 115.3 112.061 115.2C111.961 115.2 111.861 115.3 111.861 115.4ZM111.761 115.4C111.061 116 110.461 116.6 109.861 117.3C110.761 116.9 111.361 116.2 111.761 115.4ZM88.2609 115.8C88.3609 115.8 88.3609 115.8 88.4609 115.8V115.6C88.3609 115.7 88.3609 115.8 88.2609 115.8ZM106.861 118.6C107.361 117.9 108.061 117.3 108.761 116.7C108.361 117.6 107.661 118.2 106.861 118.6ZM109.861 117.4V117.3C109.761 117.4 109.661 117.5 109.661 117.6C109.761 117.5 109.761 117.4 109.861 117.4ZM87.4609 118.4C87.5609 118.2 87.7609 118.1 87.9609 118.1C87.8609 118.2 87.6609 118.4 87.4609 118.4ZM106.361 119.1C106.061 119.8 105.561 120.3 104.861 120.6C105.261 120 105.761 119.5 106.361 119.1ZM96.5609 119.5V119.4C96.6609 119.4 96.6609 119.5 96.5609 119.5ZM106.861 120.2L106.661 120.4C106.561 120.5 106.461 120.6 106.361 120.7L106.161 120.9C106.161 121 106.061 121 105.961 121.1C105.261 122.2 104.361 123.1 103.361 123.9C103.361 123.8 103.361 123.7 103.461 123.6C104.161 122.7 104.961 121.8 105.961 121L106.161 120.8C106.161 120.7 106.261 120.7 106.361 120.6C106.461 120.5 106.461 120.4 106.561 120.4L106.761 120.2C106.861 120.1 106.861 120 107.061 120C106.961 120.1 106.961 120.2 106.861 120.2ZM104.561 120.9C104.561 121 104.561 121 104.461 121L104.561 120.9ZM103.061 122.6C102.261 123.5 101.461 124.5 100.561 125.2C100.661 125 100.661 124.8 100.861 124.7C101.661 123.8 102.361 122.9 103.261 122.2C103.261 122.4 103.161 122.5 103.061 122.6ZM95.4609 122.4C95.4609 122.8 95.2609 123.1 95.0609 123.4C95.1609 123 95.1609 122.7 95.4609 122.4ZM103.161 124.1C103.161 124 103.161 124 103.261 123.9C103.261 124 103.161 124 103.161 124.1ZM102.861 124.3L103.061 124.1C103.061 124.2 102.961 124.3 102.861 124.3ZM102.661 124.6C102.161 125.4 101.561 126.1 100.761 126.7C101.161 126 101.861 125.1 102.661 124.6C102.761 124.5 102.761 124.4 102.861 124.4C102.861 124.5 102.761 124.5 102.661 124.6ZM157.18 109.2C156.78 108.5 156.18 107.9 155.58 107.3C154.48 106.2 153.28 105.8 151.88 106C150.38 106.2 148.88 106.7 147.58 107.3C145.48 108.3 143.48 109.3 141.58 110.4C140.08 111.3 138.68 112 137.28 113C135.48 114.3 133.68 115.4 132.08 117L131.08 117.9C130.98 118 130.78 118.2 130.58 118C130.38 117.8 130.38 117.7 130.38 117.5C130.38 117.3 130.58 117.1 130.58 116.8C130.58 114.8 131.48 112.9 131.78 110.8C131.88 110 131.98 109.2 131.68 108.4C131.48 107.8 131.08 107.4 130.58 107.1C130.38 107 130.18 107 130.08 107.2L129.78 107.8C129.28 108.8 128.98 109.9 128.68 111C127.98 113.4 127.08 115.7 126.28 118.1C125.38 120.9 124.68 123.6 123.78 126.3C123.58 126.9 123.68 127.4 124.18 127.9C124.38 128.1 124.68 128.3 124.78 128.6C125.08 129.4 125.68 129.6 126.38 129.9C126.88 130.1 127.28 130 127.68 129.9C128.08 129.8 127.98 129.4 128.08 129.2C128.08 129.2 128.18 129.2 128.28 129.1C128.28 129 128.38 128.9 128.48 128.8L128.68 128.6C129.18 127.4 129.98 126.5 130.88 125.6C131.08 125.2 131.38 124.8 131.68 124.6C131.78 124.7 131.78 124.9 131.78 125.1C132.08 124.7 132.38 124.4 132.58 124.1H132.08C132.58 123.4 133.08 122.7 133.88 122.3C133.88 122.2 133.98 122.2 133.98 122.1C134.08 122 134.18 121.9 134.18 121.8C134.28 121.8 134.38 121.7 134.48 121.6C134.58 121.3 134.78 121.2 135.08 121.1C135.18 121 135.28 120.9 135.28 120.8L135.48 120.6C135.48 120.7 135.48 120.7 135.58 120.8C135.58 120.7 135.58 120.7 135.48 120.6H135.58C135.68 120.1 136.08 119.8 136.58 119.6L136.78 119.3C136.98 119 137.28 118.7 137.68 118.6L137.88 118.3C138.08 118.2 138.18 118.1 138.38 118.1C138.38 118 138.48 117.9 138.58 117.8H138.48C138.68 117.6 138.88 117.4 139.18 117.3L139.38 117.1C139.58 116.8 139.88 116.7 140.08 116.5C140.28 116.3 140.58 116.2 140.78 116C140.88 115.7 141.18 115.6 141.38 115.5V115.6C141.38 115.7 141.48 115.7 141.48 115.8C141.48 115.7 141.58 115.7 141.68 115.6V115.5C141.98 115.4 142.28 115.2 142.58 115.1C142.58 115.1 142.58 115.1 142.58 115L142.78 114.8C143.18 114.5 143.78 114.3 143.88 113.9C143.98 113.6 144.28 113.6 144.48 113.5C144.88 113.3 145.28 113.1 145.58 112.9C146.28 112.4 146.98 111.9 147.78 111.5C149.28 110.8 150.78 110 152.38 109.4C152.88 109.2 153.38 109.1 153.98 108.9C154.78 108.6 155.38 108.8 156.18 109.6C156.28 109.7 156.28 109.7 156.38 109.7C156.68 109.7 156.78 110 156.98 109.8C157.18 109.6 157.28 109.4 157.18 109.2ZM149.48 107.8C149.58 107.8 149.28 108 148.88 108C148.98 107.9 149.18 107.8 149.48 107.8ZM134.58 116.8C134.78 116.4 135.08 116.2 135.48 116.1C135.58 115.8 135.78 115.6 136.08 115.6C136.18 115.2 136.48 115.1 136.68 115C136.88 114.8 137.18 114.6 137.38 114.5C137.68 114.2 138.08 113.9 138.48 113.7C138.78 113.4 139.18 113.1 139.68 113C140.18 112.5 140.88 112 141.68 111.7C143.28 110.7 144.88 109.7 146.68 109C146.78 108.8 146.98 108.8 147.18 108.8C147.48 108.4 147.88 108.3 148.38 108.3C148.48 108.1 148.68 108.1 148.78 108.1C148.88 108.1 148.88 108.2 148.88 108.3C148.68 108.3 148.58 108.3 148.38 108.3V108.5C148.08 108.7 147.78 109 147.28 108.8V109C147.08 109.1 146.98 109.1 146.78 109.1C146.78 109.2 146.78 109.2 146.78 109.3L146.38 109.6V109.5C146.08 109.7 145.98 110 145.68 110.1C145.58 110.2 145.38 110.3 145.18 110.3C145.08 110.5 144.98 110.5 144.78 110.6L144.28 110.8C144.08 111.2 143.68 111.4 143.18 111.5V111.3C142.98 111.4 142.88 111.5 142.78 111.5L143.18 111.6C143.08 111.7 142.88 111.8 142.78 111.8C142.68 111.7 142.68 111.7 142.68 111.6C142.58 111.7 142.38 111.7 142.28 111.8H142.68C142.68 112 142.48 112 142.28 112.1C142.18 112.2 141.98 112.3 141.88 112.3C141.78 112.2 141.78 112.2 141.78 112.1V112.3C141.58 112.7 141.18 112.9 140.68 113.1C140.58 113.2 140.48 113.3 140.28 113.3C140.08 113.6 139.88 113.7 139.58 113.8C139.48 114 139.28 114 139.18 114.1C139.08 114 139.08 113.9 139.08 113.8L138.68 113.9C138.68 114 138.68 114 138.58 114.1H139.08C138.98 114.3 138.78 114.5 138.48 114.6C138.38 114.7 138.18 114.8 137.98 114.8C137.98 114.7 137.98 114.6 137.98 114.6H137.58C137.48 114.8 137.38 114.9 137.28 115.1H137.78C137.68 115.2 137.58 115.3 137.38 115.3C137.38 115.2 137.28 115.1 137.28 115.1C137.18 115.1 136.98 115.1 136.88 115.2C136.78 115.3 136.68 115.4 136.68 115.6H137.08C136.98 115.6 136.78 115.7 136.68 115.8C136.68 115.7 136.68 115.6 136.68 115.6H136.18C136.08 115.7 135.98 115.9 135.98 116.1C136.18 116.1 136.28 116.1 136.48 116.1L135.98 116.3C135.98 116.2 135.98 116.1 135.98 116.1H135.48C135.38 116.2 135.38 116.4 135.28 116.6H135.78C135.68 116.8 135.48 117 135.18 117C135.18 117 135.08 116.9 135.08 116.8C134.98 116.8 134.78 116.8 134.68 116.9C134.58 116.9 134.48 117 134.48 117C134.48 116.9 134.58 116.9 134.58 116.8ZM150.78 109.4C146.28 110.9 142.48 113.9 138.88 116.7C135.38 119.4 132.48 122.6 129.78 125.9C129.38 126.4 129.08 127 128.48 127.4H128.38V127.3C128.38 126.9 128.68 126.6 128.88 126.4C131.98 123.3 134.38 119.8 137.78 117C140.98 114.3 144.58 112.2 148.38 110.1C149.48 109.5 150.48 109.1 151.68 108.8C151.48 109.1 151.08 109.3 150.78 109.4ZM141.88 111.9V112C141.98 112 142.18 112 142.28 112.1C142.28 112 142.28 111.9 142.18 111.8C142.08 111.9 141.98 111.9 141.88 111.9ZM140.18 113.1H140.68C140.68 113 140.68 112.9 140.68 112.8L140.18 113.1ZM139.78 113.1C139.78 113.2 139.78 113.3 139.78 113.3H140.28C140.28 113.2 140.18 113.1 140.18 113.1H139.78ZM139.08 113.8H139.58C139.58 113.7 139.58 113.6 139.58 113.5L139.08 113.8ZM137.98 114.6C138.18 114.6 138.28 114.6 138.48 114.6V114.3C138.28 114.4 138.08 114.5 137.98 114.6ZM140.78 116.3V116C140.68 116.1 140.78 116.1 140.78 116.3ZM140.78 116.3L140.88 116.4C140.88 116.3 140.78 116.3 140.78 116.3ZM134.38 117.1C134.38 117.2 134.28 117.4 134.28 117.5H133.78C133.88 117.3 134.08 117.1 134.38 117.1ZM139.48 117.3H139.18C139.18 117.4 139.28 117.5 139.28 117.5L139.48 117.3ZM139.08 117.8C139.08 117.7 139.18 117.7 139.28 117.6V117.5C139.18 117.6 139.08 117.7 138.98 117.8H139.08ZM133.48 117.8C133.38 118.1 133.18 118.2 132.88 118.3C133.08 118.1 133.28 117.9 133.48 117.8ZM138.58 118.1L138.98 117.8C138.88 117.8 138.68 117.8 138.58 117.8V118.1ZM138.38 118.3C138.48 118.2 138.48 118.1 138.58 118.1C138.48 118.1 138.38 118.1 138.38 118.1V118.3ZM137.88 118.5C137.88 118.6 137.88 118.6 137.88 118.6L138.38 118.3C138.18 118.3 138.08 118.3 137.88 118.3V118.5ZM137.98 118.6H137.88H137.98ZM137.68 118.8L137.88 118.6C137.78 118.6 137.78 118.6 137.68 118.6V118.8ZM137.68 118.8L137.48 119.1C137.58 119 137.68 118.9 137.68 118.8ZM137.28 119.3C137.38 119.2 137.48 119.2 137.48 119.1C137.38 119.1 137.38 119.2 137.28 119.3ZM136.88 119.6C136.98 119.5 137.08 119.4 137.28 119.3H136.78C136.78 119.4 136.88 119.5 136.88 119.6ZM131.98 119.4C131.88 119.6 131.68 119.7 131.38 119.8C131.58 119.6 131.78 119.4 131.98 119.4ZM136.78 119.6H136.58C136.58 119.7 136.68 119.7 136.68 119.8C136.68 119.7 136.78 119.7 136.78 119.6ZM136.28 120.4C136.28 120.3 136.38 120.2 136.38 120.1L136.18 120.4H136.28ZM135.38 121.1C135.48 121 135.48 120.9 135.58 120.8H135.28C135.38 120.9 135.38 121 135.38 121.1ZM135.18 121.3C135.18 121.2 135.28 121.2 135.38 121.1H135.08C135.08 121.2 135.18 121.2 135.18 121.3ZM134.98 121.6C134.98 121.5 135.08 121.4 135.18 121.3C135.08 121.4 134.98 121.5 134.88 121.6H134.98ZM134.48 121.8C134.68 121.7 134.78 121.7 134.88 121.6C134.78 121.6 134.58 121.6 134.48 121.6V121.8ZM134.28 122.1L134.48 121.8C134.38 121.8 134.28 121.8 134.28 121.8V122.1ZM134.08 122.3L134.28 122.1C134.18 122.1 134.08 122.1 134.08 122.1V122.3ZM133.88 122.5C133.98 122.5 133.98 122.4 134.08 122.3C133.98 122.3 133.88 122.3 133.88 122.3V122.5ZM133.88 122.6C133.78 122.6 133.68 122.7 133.68 122.8C133.68 122.7 133.78 122.7 133.88 122.6ZM133.28 123.3C133.28 123.2 133.38 123.2 133.48 123.1C133.48 123 133.58 122.9 133.68 122.8L133.38 123.1C133.38 123.1 133.28 123.2 133.18 123.3L132.98 123.6C132.98 123.6 132.88 123.7 132.78 123.8L133.08 123.6C133.08 123.5 133.18 123.4 133.28 123.3ZM132.78 123.8C132.78 123.9 132.68 124 132.58 124.1H132.68C132.68 124 132.78 123.9 132.78 123.8ZM131.78 125.1L131.58 125.3C131.68 125.2 131.78 125.2 131.78 125.1ZM130.58 126.6L130.68 126.5H130.58L130.38 126.8C130.48 126.7 130.48 126.6 130.58 126.6ZM130.18 127.1C130.18 127 130.28 126.9 130.38 126.8L130.08 127.1C130.08 127.2 129.98 127.2 129.98 127.3C130.08 127.3 130.08 127.2 130.18 127.1ZM129.98 127.3L129.88 127.4C129.98 127.4 129.98 127.3 129.98 127.3ZM129.88 127.4L129.68 127.6C129.68 127.7 129.58 127.7 129.58 127.8L129.78 127.6C129.88 127.5 129.88 127.5 129.88 127.4ZM129.58 127.8L129.38 128C129.28 128.1 129.28 128.2 129.18 128.2C129.28 128.2 129.38 128.1 129.38 128.1L129.58 127.8ZM129.08 128.4C129.08 128.4 129.18 128.3 129.18 128.2C129.18 128.3 129.08 128.3 129.08 128.4ZM129.08 128.4C128.98 128.4 128.98 128.5 128.88 128.6C128.98 128.5 129.08 128.5 129.08 128.4ZM128.88 128.6H128.68C128.68 128.7 128.68 128.7 128.68 128.8L128.88 128.6ZM128.48 129.1C128.58 129 128.68 128.9 128.68 128.8C128.58 128.8 128.58 128.8 128.48 128.8V129.1ZM128.28 129.1H128.48C128.38 129 128.28 129 128.28 129.1ZM206.017 109.4C205.617 108.9 205.117 108.9 204.517 109C204.017 109.2 203.617 109.4 203.117 109.7C202.317 110.1 201.517 110.5 200.817 110.9C197.917 112.5 195.117 114.3 192.317 116.1C188.717 118.4 185.217 120.8 181.617 123.2C179.317 124.7 177.017 126.3 174.617 127.8C173.317 128.7 171.917 129.5 170.417 130.2C169.817 130.5 169.117 130.8 168.417 130.9C168.017 131 167.717 130.9 167.617 130.4C167.517 129.8 167.517 129.1 167.617 128.5C167.717 127.4 167.917 126.4 168.217 125.4C168.417 124.5 168.517 123.7 169.017 122.9V122.6C169.117 122.4 169.117 122.2 169.217 122C170.017 120.1 171.117 118.2 172.217 116.3C172.417 115.9 172.717 115.5 173.017 115.2C173.417 114.7 173.817 114.4 174.317 114.4C176.217 114.1 177.717 113.1 179.317 112.1C180.917 111 182.317 109.6 183.617 108.2C185.317 106.4 185.217 105.2 183.817 103.8C182.917 102.9 181.917 102.8 180.717 103.2C180.017 103.5 179.217 103.9 178.517 104.3C177.117 105.4 175.717 106.5 174.517 107.8C174.117 108.4 173.617 108.9 173.017 109.3C172.117 109.9 171.417 110.7 171.017 111.7C170.917 112.1 170.717 112.4 170.517 112.7C169.117 114.7 167.817 116.7 166.817 118.8C165.617 121.3 164.617 123.8 164.217 126.5C163.817 128.8 164.317 130.7 165.817 132.3C166.917 133.4 168.217 133.8 169.817 133.7C171.117 133.6 172.317 133.2 173.517 132.6C175.617 131.5 177.717 130.3 179.717 128.9C180.917 128.1 182.117 127.3 183.317 126.4H183.417C184.217 125.7 185.017 125 185.817 124.4C187.517 123 189.317 121.8 191.017 120.5C192.917 119.2 195.017 118.1 196.817 116.7C197.817 116.1 198.917 115.5 199.917 114.8C202.117 113.3 204.417 111.9 206.917 111C207.017 110.2 206.417 109.8 206.017 109.4ZM178.117 105.9L178.417 105.6C178.917 105 179.517 104.7 180.217 104.4C180.217 104.4 180.217 104.5 180.317 104.6C180.217 104.7 180.217 104.8 180.217 104.9C180.017 105.1 179.717 105.2 179.417 105.4C179.217 105.6 178.917 105.8 178.617 105.9L178.317 106.1C178.217 106.2 178.117 106.3 178.117 106.4V106.1C178.017 106.1 177.917 106.1 177.817 106.1L178.117 105.9ZM181.517 105.6C180.217 106.5 179.117 107.4 177.817 108.3C178.717 107 180.217 105.9 181.517 105.6ZM178.317 106.1C178.317 106 178.417 106 178.417 105.9C178.417 105.9 178.517 105.9 178.617 105.9L178.417 105.6C178.417 105.7 178.417 105.8 178.317 105.9H178.117C178.117 106 178.117 106 178.117 106.1H178.317ZM177.817 106.2C177.817 106.2 177.817 106.3 177.817 106.4H177.517C177.617 106.3 177.717 106.2 177.817 106.2ZM178.317 108.7V108.6C178.417 108.6 178.517 108.5 178.517 108.4H178.617C179.217 107.5 180.217 106.9 181.217 106.5C181.317 106.4 181.417 106.4 181.517 106.5C181.617 106.6 181.617 106.8 181.517 106.9C180.817 107.6 180.217 108.3 179.517 108.9C179.117 109.3 178.617 109.6 178.117 110C177.617 110.5 177.017 110.8 176.317 110.9C176.817 110 177.517 109.3 178.317 108.7ZM178.417 108.6H178.317C178.317 108.6 178.417 108.7 178.517 108.7L178.417 108.6ZM181.417 109.9C181.417 109.8 181.517 109.7 181.617 109.7C181.617 109.8 181.517 109.8 181.417 109.9ZM178.917 110.6C178.617 110.9 178.217 111.2 177.717 111.1C178.217 110.6 178.817 110.3 179.317 109.9C179.317 110.2 179.217 110.5 178.917 110.6ZM180.817 110.4C180.517 110.9 180.017 111.3 179.417 111.4C179.417 111.5 179.317 111.6 179.217 111.6C179.317 111.6 179.317 111.5 179.417 111.4C179.817 110.9 180.317 110.6 180.817 110.3C180.817 110.3 180.917 110.2 181.017 110.2C181.017 110.3 180.917 110.3 180.817 110.4ZM203.217 110.4C203.317 110.4 203.417 110.4 203.417 110.5L203.317 110.6H203.117C203.117 110.6 203.217 110.5 203.217 110.4ZM203.017 110.7C202.917 110.8 202.717 110.9 202.617 110.9C202.717 110.7 202.917 110.7 203.017 110.7ZM202.517 110.9C202.417 111.1 202.217 111.1 202.017 111.1L202.517 110.9ZM179.917 125.6C180.217 125.3 180.617 125 181.017 124.8C181.317 124.5 181.617 124.3 182.017 124.1C182.517 123.7 182.917 123.3 183.417 123.1C184.117 122.5 184.917 122 185.617 121.6C185.917 121.2 186.317 121 186.717 120.8C187.017 120.5 187.417 120.2 187.817 120.1C188.117 119.8 188.517 119.5 188.917 119.4C189.517 118.8 190.117 118.4 190.817 118.1C191.117 117.8 191.517 117.5 191.917 117.4C192.217 117.1 192.417 116.9 192.717 116.9C193.317 116.3 193.917 115.9 194.617 115.6C194.917 115.3 195.117 115.2 195.517 115.1C195.717 114.8 196.017 114.7 196.317 114.6C197.017 113.9 197.817 113.5 198.717 113.1C198.917 112.8 199.217 112.7 199.617 112.6C199.717 112.3 200.017 112.2 200.317 112.1C200.617 111.8 200.817 111.7 201.217 111.6C201.417 111.3 201.717 111.2 201.917 111.1C201.917 111.2 201.917 111.3 202.017 111.4C201.817 111.6 201.617 111.7 201.417 111.9L201.217 111.7C201.217 111.8 201.217 111.8 201.117 111.9C201.017 112.1 200.817 112.2 200.617 112.4C200.317 112.6 200.017 112.7 199.817 112.9L198.917 113.4C198.717 113.6 198.417 113.7 198.117 113.9H198.217C197.917 114 197.617 114.2 197.317 114.4H197.417C197.117 114.5 196.817 114.7 196.517 114.9C196.517 114.8 196.417 114.8 196.317 114.7V114.9C196.117 115.1 195.917 115.2 195.717 115.4L195.517 115.2C195.517 115.3 195.517 115.3 195.417 115.4C195.317 115.6 195.117 115.7 194.917 115.9L194.617 116.2C194.317 116.3 194.117 116.5 193.817 116.6H193.517C193.417 116.8 193.217 117 193.017 117.1C192.917 117.1 192.917 117 192.817 116.9C192.817 117 192.817 117.1 192.717 117.2H193.017C192.917 117.2 192.817 117.3 192.717 117.4C192.517 117.5 192.417 117.6 192.217 117.6C192.117 117.6 192.117 117.5 192.017 117.5V117.6C192.017 117.6 192.117 117.6 192.217 117.7C192.117 117.7 192.017 117.8 191.917 117.9C191.717 118.1 191.417 118.3 191.117 118.4L190.817 118.7C190.517 118.8 190.317 119 190.017 119.1L189.717 119.4C189.517 119.5 189.417 119.6 189.217 119.6C189.117 119.6 189.117 119.5 189.017 119.5V119.6C189.017 119.6 189.117 119.6 189.217 119.7C189.117 119.7 189.017 119.8 188.917 119.9L188.617 120.2C188.417 120.2 188.317 120.3 188.117 120.4L187.817 120.7C187.617 120.9 187.317 121.1 187.017 121.2C186.917 121.2 186.817 121.3 186.717 121.4C186.517 121.7 186.217 121.9 185.917 121.9L185.617 122.2C185.517 122.2 185.417 122.3 185.417 122.4V122.3H185.317V122.4C185.117 122.7 184.817 122.8 184.517 122.9H184.417V123L184.317 123.1L184.217 123V123.2C184.017 123.4 183.717 123.6 183.417 123.7C183.317 123.7 183.217 123.8 183.217 123.9C183.217 123.8 183.217 123.7 183.217 123.7L182.917 123.9C183.017 123.9 183.017 123.9 183.117 123.9L182.817 124.2C182.717 124.2 182.517 124.3 182.317 124.4C182.217 124.5 182.217 124.6 182.117 124.6V124.4C182.017 124.5 181.917 124.6 181.817 124.6C181.817 124.7 181.817 124.7 181.817 124.7H182.017C182.017 124.7 181.917 124.8 181.817 124.9V124.7C181.717 124.8 181.617 124.8 181.517 124.9L181.117 125C181.117 125.1 181.017 125.1 181.017 125.2C180.917 125.2 180.817 125.3 180.717 125.4H181.017C180.917 125.5 180.817 125.6 180.717 125.6V125.4C180.617 125.5 180.517 125.6 180.417 125.7H180.017C179.917 125.9 179.717 126 179.617 126.2C179.417 126.2 179.117 126.3 178.917 126.4C179.117 126 179.517 125.8 179.917 125.6ZM204.517 111.4C204.617 111.2 204.817 111.2 204.917 111.2C204.817 111.2 204.617 111.3 204.517 111.4ZM203.717 111.9L203.117 112.2C203.017 112.4 202.817 112.5 202.517 112.7C200.817 113.8 199.017 114.9 197.317 115.9C197.117 116.1 196.917 116.1 196.717 116.2C196.117 116.8 195.517 117.2 194.817 117.5C192.617 119.1 190.517 120.6 188.217 122C187.117 122.8 186.117 123.7 185.017 124.5C183.517 125.5 182.117 126.6 180.617 127.6C180.117 127.9 179.717 128.3 179.117 128.4C178.917 128.7 178.617 128.9 178.317 128.9C178.117 129.2 177.817 129.3 177.517 129.4C177.717 129.2 178.017 129 178.317 128.9C178.517 128.6 178.717 128.4 179.117 128.4C179.317 128 179.817 127.7 180.217 127.4C182.517 125.8 184.817 124.1 187.117 122.4L188.117 121.8C189.717 120.5 191.517 119.3 193.317 118.1C193.717 117.8 194.217 117.6 194.617 117.3C195.217 116.8 195.917 116.4 196.617 116.1C198.417 114.7 200.417 113.6 202.417 112.4C202.617 112.2 202.917 112.2 203.117 112.1C203.317 111.9 203.517 111.9 203.717 111.9C203.917 111.6 204.117 111.4 204.417 111.4C204.317 111.7 204.017 111.8 203.717 111.9ZM178.417 112.1C178.617 111.9 178.817 111.7 179.117 111.7C179.017 112 178.717 112.1 178.417 112.1ZM194.617 115.9C194.717 115.9 194.817 115.9 194.917 115.9L194.717 115.7C194.717 115.8 194.717 115.8 194.617 115.9ZM190.817 118.4C190.917 118.4 191.017 118.4 191.117 118.4L190.917 118.2C190.917 118.3 190.917 118.3 190.817 118.4ZM188.617 119.9H188.917C188.917 119.8 188.917 119.8 188.917 119.7L188.617 119.9ZM187.817 120.4C187.917 120.4 188.017 120.4 188.117 120.4L187.917 120.2C187.917 120.3 187.917 120.4 187.817 120.4ZM186.817 121V121.1C186.817 121.1 186.917 121.1 187.017 121.2C186.917 121.1 186.917 121 186.817 121ZM186.717 121.2V121.4C186.817 121.3 186.817 121.3 186.717 121.2ZM185.917 121.9C185.817 121.9 185.817 121.8 185.717 121.8C185.817 121.9 185.817 121.9 185.917 121.9ZM185.417 122.1C185.517 122.1 185.517 122.1 185.617 122.2V122C185.517 122 185.517 122.1 185.417 122.1ZM183.217 123.7C183.317 123.7 183.317 123.7 183.417 123.7V123.4C183.417 123.5 183.317 123.6 183.217 123.7ZM182.117 124.4H182.317C182.317 124.4 182.217 124.3 182.217 124.2C182.217 124.3 182.117 124.4 182.117 124.4ZM178.817 126.4C178.717 126.7 178.417 126.9 178.117 126.9C178.317 126.6 178.517 126.5 178.817 126.4ZM177.717 127.2C177.517 127.5 177.317 127.6 177.017 127.6C177.217 127.4 177.417 127.2 177.717 127.2ZM176.717 127.9C176.717 127.8 176.817 127.7 176.917 127.7C176.817 127.8 176.717 127.8 176.717 127.9ZM258.846 111.5C258.946 111.3 258.946 111.1 258.746 111C258.146 110.3 257.346 109.9 256.346 110.3C256.046 110.5 255.746 110.6 255.346 110.8C254.946 111 254.446 111.2 253.946 111.5C253.046 111.9 251.946 112.3 250.946 112.8C248.546 114.2 245.946 115.4 243.346 116.7C242.046 117.4 240.546 118.1 239.046 118.9C238.746 119 238.446 119.2 238.146 119.3H237.746C237.646 119.2 237.646 119.1 237.646 119C238.046 118.2 238.246 117.4 238.546 116.7C238.946 115.7 239.346 114.7 239.446 113.6C239.646 112.9 239.546 112.3 239.246 111.6C238.846 110.9 238.146 110.2 237.546 109.6C236.546 108.8 235.546 108.5 234.246 108.9C233.646 109 232.946 109.3 232.346 109.6C230.646 110.2 229.046 111.1 227.546 111.9C224.946 113.3 222.646 115 220.446 116.9C219.946 117.2 219.646 117.6 219.246 117.8C219.046 117.9 218.846 117.8 218.746 117.6C218.646 117.1 218.746 116.7 219.246 116.5C219.346 116.3 219.446 116.1 219.646 115.9C219.546 115.6 219.646 115.4 219.846 115.2C219.946 115 220.146 114.8 220.246 114.6V114.3C220.346 114.1 220.446 114.1 220.546 113.9C220.646 113.7 220.646 113.6 220.646 113.5C221.346 112.1 222.146 110.8 223.146 109.6C223.246 109.2 223.446 108.8 223.746 108.4C225.146 106.3 226.546 104.4 227.946 102.3L228.546 101.5C228.746 101.1 228.646 100.8 228.646 100.5C228.646 100.1 228.246 100.3 228.146 100.1C227.846 99.7 227.646 99.8 227.346 100C226.646 100.6 225.946 101.2 225.346 101.8C223.946 103.4 222.546 105 221.346 106.6C219.746 108.7 218.246 110.9 216.946 113.1C216.446 114.1 215.946 115 215.346 116C214.746 117.1 214.146 118.4 213.846 119.7C213.546 120.6 213.746 121.3 214.446 122L214.946 122.6C215.446 123.5 217.346 123.9 218.246 123.4C219.046 123.2 219.646 122.8 220.246 122.3C221.946 121.1 223.546 119.8 225.146 118.5H225.046C225.546 118.1 226.046 117.7 226.546 117.4C226.646 117.3 226.846 117.1 227.046 117C227.746 116.6 228.546 116.1 229.346 115.5C230.846 114.7 232.346 113.9 233.846 113.2C234.246 113 234.646 112.9 234.946 112.8C235.346 112.7 235.546 112.9 235.446 113.2L234.846 114.8C234.246 115.9 233.846 117.1 233.546 118.3C233.246 119.3 233.546 120 234.046 120.8C234.246 121.2 234.546 121.5 234.846 121.9C235.846 123.2 237.146 123.6 238.746 123.2C239.446 123.1 240.046 122.8 240.746 122.6C241.946 122 243.046 121.4 244.246 120.7C246.146 119.5 248.146 118.4 250.046 117.2L251.346 116.5C253.246 115.4 255.146 114.2 257.146 113.3C257.646 113 258.046 112.8 258.446 112.5C258.646 112.4 258.846 112.2 258.946 112H258.446C258.446 111.7 258.746 111.6 258.846 111.5ZM255.946 113.2C255.846 113.3 255.746 113.3 255.746 113.2L255.846 113.1C255.946 113.1 255.946 113 256.046 113C255.946 113.1 255.946 113.1 255.946 113.2ZM218.946 119.8L219.246 119.5C219.446 119.1 219.846 118.8 220.246 118.6C221.246 117.5 222.446 116.6 223.746 115.8C224.146 115.4 224.646 114.9 225.146 114.7C225.346 114.5 225.646 114.3 225.846 114.3C226.046 114.1 226.346 113.9 226.546 113.9C226.746 113.6 226.946 113.5 227.146 113.5C227.046 113.7 226.846 113.9 226.546 113.9C226.446 114.1 226.246 114.3 225.946 114.3C225.846 114.5 225.846 114.7 225.746 114.8C225.646 114.8 225.446 114.8 225.346 114.8L225.046 115.2C225.046 115.3 224.946 115.4 224.846 115.4H225.046C225.046 115.4 224.946 115.5 224.846 115.6V115.4C224.546 115.4 224.446 115.6 224.246 115.8C224.046 115.9 223.946 115.9 223.846 116C223.646 116.1 223.446 116.3 223.346 116.5C223.246 116.6 223.246 116.7 223.146 116.7H223.246C223.246 116.7 223.246 116.8 223.146 116.9V116.7C222.846 116.7 222.546 116.9 222.446 117.2H222.846C222.646 117.4 222.546 117.5 222.246 117.6C222.146 117.7 222.046 117.7 222.046 117.8V117.6C222.046 117.6 222.146 117.6 222.246 117.6V117.4C222.146 117.4 222.046 117.5 221.946 117.6C221.946 117.6 221.946 117.7 221.846 117.8H221.946C221.946 117.9 221.946 118 221.846 118V117.8C221.546 117.9 221.246 118 221.146 118.2H221.546C221.446 118.3 221.246 118.4 221.246 118.5C221.146 118.4 221.146 118.3 221.146 118.2L220.946 118.5C221.046 118.5 221.046 118.5 221.146 118.5L220.946 118.7C220.846 118.7 220.746 118.8 220.746 118.9C220.746 118.8 220.746 118.7 220.646 118.7H220.346C220.046 119.1 219.746 119.4 219.246 119.6C219.146 119.6 219.046 119.7 218.946 119.8ZM253.746 114.3C253.446 114.8 253.046 114.8 252.646 115C252.946 114.6 253.246 114.4 253.746 114.3C253.846 114.2 253.946 114.1 254.146 114.1C253.946 114.2 253.846 114.2 253.746 114.3ZM227.846 115.4L227.646 115.7C225.646 117 223.846 118.6 221.946 120C221.546 120.4 221.146 120.9 220.546 121.1C220.346 121.3 220.146 121.4 219.946 121.4C220.046 121.3 220.246 121.1 220.546 121.1C220.646 120.9 220.646 120.7 220.746 120.6C222.846 118.9 224.846 117.1 227.146 115.7C227.346 115.5 227.646 115.4 227.846 115.4C228.146 115 228.446 114.8 228.946 114.8C228.646 115.1 228.346 115.4 227.846 115.4ZM225.446 115.2L225.146 115.4C225.146 115.4 225.146 115.3 225.146 115.2H225.446ZM248.346 115.4L248.646 115.2C248.546 115.4 248.446 115.4 248.346 115.4ZM251.846 115.4C251.846 115.3 252.046 115.3 252.146 115.3C252.046 115.3 251.846 115.4 251.846 115.4ZM251.346 115.6C251.446 115.5 251.646 115.5 251.746 115.4C251.646 115.5 251.546 115.6 251.346 115.6ZM250.246 116.2C250.346 116.1 250.546 116.1 250.546 116.1C250.546 116.1 250.446 116.2 250.246 116.2ZM249.846 116.5C249.846 116.4 250.046 116.3 250.246 116.3C250.046 116.4 249.946 116.5 249.846 116.5ZM248.746 117.2C248.946 116.7 249.346 116.7 249.746 116.5C249.446 116.8 249.146 117 248.746 117.2ZM248.346 117.4C248.446 117.3 248.546 117.2 248.646 117.2L248.346 117.4ZM247.946 117.5C247.946 117.5 248.046 117.4 248.246 117.4C248.146 117.5 247.946 117.5 247.946 117.5ZM247.246 118C247.346 117.8 247.546 117.7 247.846 117.6C247.746 117.9 247.446 117.9 247.246 118ZM246.346 118.4C246.446 118.4 246.646 118.3 246.646 118.2C246.646 118.4 246.546 118.4 246.346 118.4ZM220.946 118.7V118.5C220.846 118.6 220.746 118.6 220.646 118.7H220.946ZM245.646 118.9L245.346 119.1C245.346 119 245.546 119 245.646 118.9C245.846 118.7 246.046 118.6 246.246 118.5C246.146 118.7 245.946 118.8 245.646 118.9ZM244.646 119.5C244.746 119.3 244.946 119.2 245.246 119.1C245.046 119.3 244.846 119.4 244.646 119.5ZM456.003 15.6C455.803 15.6 455.703 15.5 455.603 15.4C455.203 15.2 454.503 15.3 454.103 15.8C453.703 16.3 453.103 16.9 452.803 17.4C451.803 18.8 450.903 20.1 450.103 21.5L443.903 32.6C443.103 33.9 442.403 35.3 441.703 36.6C441.103 37.8 440.403 38.9 439.803 40.1L438.003 43.5C437.303 44.8 436.603 46 435.903 47.2C434.403 49.9 433.003 52.6 431.603 55.2C429.303 59.4 427.103 63.7 424.803 67.9C424.403 68.8 423.903 69.7 423.303 70.6C422.403 72.4 421.403 74.2 420.403 76C419.203 78.2 418.103 80.4 417.003 82.6C416.303 83.8 415.603 85 414.903 86.3L411.703 92.2C410.203 95.2 408.403 98.3 406.703 101.3C405.003 104.5 403.303 107.7 401.603 110.9L399.903 113.8C399.103 115.4 398.203 117.1 397.303 118.7L392.703 127.1C392.303 127.6 392.103 128.2 391.703 128.8C390.903 130.1 390.103 131.4 389.403 132.8C388.003 135.3 386.603 137.7 385.003 140.1C384.703 140.6 384.403 141.2 384.203 141.7C383.503 142.8 382.903 144 382.203 145.1L378.103 151C376.903 152.8 375.603 154.4 374.003 155.9C373.703 156.4 373.203 156.8 372.603 157C371.903 156.5 371.703 155.7 371.403 155C370.703 153 370.303 150.9 370.203 148.8C370.003 146.6 369.903 144.4 369.703 142.2C369.703 140.5 369.803 138.9 369.803 137.2C369.803 136.5 369.903 135.9 370.003 135.2C369.903 134.5 370.003 133.9 370.003 133.2C370.103 132.9 370.103 132.6 370.003 132.2C370.103 131.3 370.003 130.3 370.303 129.4L370.603 126.7C370.803 125.1 371.103 123.4 371.203 121.8C371.303 121.2 371.203 120.7 371.403 120.1C371.503 119.6 371.603 119.1 371.503 118.6C371.403 118.2 371.503 117.7 371.603 117.2C372.103 115.5 372.003 113.9 372.703 112.3C372.803 112.1 372.703 111.8 372.703 111.5C372.803 111.2 372.803 110.9 372.903 110.7C373.403 109 373.403 107.4 373.903 105.7C374.003 105.4 374.003 105.2 374.003 104.9C374.003 104.6 374.103 104.3 374.203 103.9C374.403 103 374.603 102 374.703 101.1C374.803 100.2 375.303 99.2 375.103 98.3C375.003 98.2 375.103 98.1 375.103 98L375.703 96.3C375.803 95.4 376.203 94.5 376.103 93.6C376.103 93.4 376.203 93.1 376.403 92.8C376.503 92.5 376.503 92.2 376.603 91.9C376.703 91.5 376.703 91 376.903 90.6C377.703 88.3 378.103 86.1 378.303 83.9C378.403 83.6 378.503 83.3 378.503 83.1C379.003 81.7 379.503 80.3 379.603 78.9C379.603 78.7 379.603 78.5 379.703 78.4C380.203 77.4 380.403 76.4 380.503 75.5C380.503 75 380.603 74.6 380.703 74.2C381.203 72.9 381.303 71.5 381.403 70.2C381.503 69.9 381.503 69.5 381.303 69.3C380.803 68.9 380.303 68.2 379.503 68.1C379.003 68 378.703 67.8 378.203 67.7C377.503 67.4 376.803 67.6 376.203 68.4C375.503 69.2 375.003 70.1 374.503 71C373.403 72.7 372.503 74.5 371.403 76.2L369.903 78.8C368.803 80.5 367.903 82.3 366.803 84C365.503 86.4 364.103 88.7 362.703 91C361.703 92.9 360.503 94.8 359.303 96.7C358.903 97.5 358.403 98.2 357.903 99L353.903 105.6C353.303 106.7 352.603 107.8 352.003 108.9L347.803 115.7C347.203 116.6 346.703 117.5 346.103 118.3C344.703 120.5 343.303 122.7 341.903 124.9L338.403 130.3C336.203 133.8 333.903 137.2 331.603 140.7L330.403 142.3C328.903 144.6 327.403 146.8 325.903 149C324.203 151.3 322.403 153.5 320.703 155.8C319.303 157.5 317.803 159 316.103 160.5C315.803 160.9 315.403 161.2 315.003 161.4C314.603 161.7 314.203 161.7 314.103 161.4C313.803 160.9 313.603 160.5 313.503 159.9C312.903 158.2 312.803 156.2 312.703 154.3C312.603 153.7 312.603 153.2 312.503 152.7C312.503 152 312.503 151.4 312.603 150.7C312.603 149.5 312.803 148.3 312.803 147.2C312.703 146.1 312.803 144.9 313.003 143.7C313.103 143 313.303 142.2 313.403 141.4C313.503 140.7 313.503 139.9 313.803 139.1C313.803 139 313.903 138.9 313.803 138.8C313.603 137.9 314.503 136.8 314.103 136C314.303 135.1 314.303 134.2 314.503 133.3C315.003 131.6 315.203 130 315.603 128.3C315.903 126.5 316.503 124.7 316.903 122.9C317.203 122.1 317.503 121.3 317.503 120.5C317.603 119.5 317.803 118.5 318.303 117.5C318.403 117.3 318.403 117.2 318.603 117C319.203 114.2 319.903 111.4 320.903 108.7C321.703 106.6 322.103 104.5 323.103 102.4C323.103 102.3 323.203 102.1 323.303 101.9C323.803 100.3 324.403 98.7 324.903 97.1C326.103 94 327.203 91 328.503 87.9C329.703 85 330.903 82 332.203 79.1L336.703 69.3C339.203 63.7 342.003 58.2 344.803 52.8C346.003 50.5 347.203 48.2 348.303 45.9C348.203 45.5 348.303 45.1 348.603 44.6C349.403 43.3 350.203 42.1 350.803 40.8C351.403 39.8 351.903 38.7 352.403 37.6C352.503 37.4 352.503 37.2 352.603 36.9C352.203 37.1 351.903 37.1 351.803 37.3C351.603 37.5 351.403 37.8 351.103 38.2C349.003 41.2 347.003 44.3 345.103 47.5C343.503 50.3 341.703 53.2 340.303 56.1L338.503 59.4C337.503 61.1 336.603 62.8 335.703 64.5L331.403 73.3C329.903 76.3 328.603 79.3 327.203 82.2C325.603 86.1 323.903 90 322.403 93.9C321.203 96.7 320.103 99.5 319.103 102.4C317.703 106.2 316.503 110.1 315.303 113.9C314.503 116.5 313.803 119.2 313.003 121.8C312.703 122.9 312.503 123.9 312.303 124.9C311.603 127.7 310.903 130.5 310.403 133.3C310.003 136.2 309.303 139.1 309.003 142C308.503 145.6 308.203 149.3 308.203 152.8C308.203 155.3 308.503 157.6 309.003 159.9C309.403 162.1 310.803 163.6 313.003 164.3C314.203 164.6 315.503 164.6 316.803 164C318.103 163.5 319.203 162.6 320.203 161.8C322.703 159.7 324.703 157.3 326.603 154.9C329.003 151.9 331.203 148.8 333.403 145.8C333.803 145.3 334.003 144.9 334.303 144.4C334.803 143.5 335.403 142.5 336.103 141.6C336.103 141.4 336.203 141.2 336.403 141.1C337.703 139.8 338.503 138.4 339.203 136.9C339.703 135.9 340.303 135.1 341.103 134.4C341.103 134.2 341.203 134 341.303 133.8C341.403 133.6 341.503 133.3 341.803 133C342.003 132.6 342.103 132.2 342.503 131.9C342.903 131.7 343.003 131.3 343.203 131C343.303 130.8 343.403 130.7 343.403 130.5C343.603 130.2 343.703 129.9 343.903 129.7L343.803 129.8V129.7C344.103 128.9 344.703 128.3 345.103 127.7C345.503 127.2 345.803 126.8 346.003 126.4C346.303 125.9 346.603 125.5 346.903 125.1H346.803C347.103 124.8 347.203 124.6 347.303 124.3C348.203 122.4 349.503 120.7 350.703 118.8L350.903 118.6V118.7C351.303 118.1 351.503 117.4 351.903 116.8C352.803 115.3 353.803 113.8 354.803 112.3C355.103 111.8 355.303 111.4 355.703 111C355.903 110.5 356.203 110 356.503 109.4C357.403 108 358.403 106.5 359.303 105C359.503 104.6 359.903 104.2 360.203 103.8C360.503 103.3 360.603 102.8 360.803 102.3C362.803 99.1 364.703 95.9 366.603 92.8C366.903 92.3 367.203 91.9 367.503 91.5C368.103 90.2 368.803 88.9 369.803 87.7C369.903 87.4 370.103 87.1 370.203 86.8C371.403 84.7 372.703 82.6 373.803 80.5L374.203 80.2C374.103 80.7 373.903 81 374.003 81.3C374.003 82.8 373.503 84.2 373.203 85.7L372.303 89.6C372.203 90.2 372.003 90.8 371.903 91.4C371.703 92.1 371.503 92.9 371.403 93.6C370.703 96.7 370.103 99.8 369.403 102.9C369.003 105.3 368.503 107.6 368.103 109.9C367.703 112.1 367.403 114.2 367.103 116.3C366.703 119.3 366.203 122.2 365.903 125.2C365.603 128.1 365.303 131.1 365.103 134C364.703 139.6 364.703 145.1 365.403 150.4C365.603 152 366.003 153.5 366.503 154.9C366.803 155.9 367.403 156.9 368.003 157.7C368.803 158.7 369.903 159.2 371.003 159.8C372.603 160.5 374.403 160.3 376.303 159.1C377.403 158.4 378.503 157.4 379.403 156.4C381.303 154.2 383.103 152.1 384.503 149.7C384.503 149.6 384.503 149.4 384.603 149.2C385.203 148.4 386.003 147.7 386.103 146.8C387.103 145.2 387.803 143.7 389.003 142.3H388.903C389.203 142 389.303 141.8 389.503 141.5H389.403C389.703 140.9 389.903 140.5 390.303 140H390.403V139.9L390.303 140C390.603 139.4 390.803 138.9 391.303 138.4C391.803 137.3 392.403 136.1 393.203 135.1C393.403 134.9 393.503 134.6 393.603 134.3C394.003 133.6 394.303 132.9 394.603 132.2L395.803 130.2C396.903 128.4 397.803 126.6 398.903 124.8C399.003 124.6 399.203 124.3 399.403 124.1C399.803 123.4 400.103 122.7 400.403 122C402.303 118.5 404.203 115 406.203 111.5C406.603 110.9 406.803 110.2 407.203 109.5C408.603 106.9 410.203 104.2 411.603 101.5C411.903 100.9 412.203 100.4 412.603 99.8C412.803 99.3 413.203 98.7 413.403 98.2C413.703 97.5 414.303 97.2 414.603 96.7C414.503 96.3 414.703 95.8 414.903 95.4L416.503 92.3C417.103 91.2 417.803 90.2 418.403 89.2C418.503 88.5 418.903 87.9 419.403 87.4L419.303 87.5V87.4C419.903 86 420.503 84.6 421.503 83.3C421.603 82.9 421.903 82.6 422.003 82.2V82.3C422.103 81.9 422.303 81.5 422.403 81.1C423.103 79.8 423.903 78.5 424.603 77.2L425.103 76.4C425.403 75.7 425.503 74.9 426.203 74.3C426.403 73.3 427.103 72.4 427.503 71.5C428.403 69.7 429.103 67.9 430.503 66.3C430.603 66.2 430.603 66 430.703 65.9C430.703 65.7 430.803 65.5 430.903 65.4H430.803C431.303 63.9 432.203 62.5 433.003 61C433.103 60.8 433.303 60.6 433.403 60.5C433.503 60.3 433.503 60 433.703 59.8C433.903 59.4 434.303 58.9 434.503 58.4L435.103 56.9C435.203 56.7 435.403 56.5 435.603 56.3V56.4C435.703 56 435.803 55.5 436.103 55.1C436.603 54.1 437.003 53.2 437.603 52.2C437.903 51.7 438.203 51.2 438.703 50.5C438.703 50 439.103 49.3 439.603 48.7C439.903 48 440.103 47.3 440.703 46.6C440.703 46.3 440.903 46 441.003 45.7C442.503 42.9 444.003 40 445.503 37.1C445.703 36.8 445.903 36.6 446.003 36.4L446.303 35.9C446.603 34.8 447.403 33.8 447.903 32.7C449.803 29.1 451.903 25.5 453.903 21.9C454.103 21.5 454.403 21.1 454.703 20.7C455.003 20.1 455.403 19.4 455.803 18.8C456.303 18.2 456.803 17.6 457.403 17C457.203 16.3 456.803 15.7 456.003 15.6ZM454.603 16.8V16.6L454.703 16.5L454.803 16.6C454.803 16.7 454.703 16.7 454.603 16.8ZM455.203 18.7C455.303 18.3 455.503 17.8 456.203 17.4C455.903 18 455.603 18.4 455.203 18.7ZM348.403 45.7C348.403 45.8 348.403 45.9 348.303 45.9V46C348.403 45.9 348.403 45.8 348.403 45.7ZM343.503 54.4L343.403 54.5C343.403 54.5 343.403 54.4 343.503 54.4ZM342.103 57H342.203L342.103 57.1V57ZM341.503 58.3C341.203 59.1 340.803 60 340.303 60.7C340.503 59.9 340.903 59.1 341.503 58.3ZM338.503 64.4L337.903 65.7C338.003 65.1 338.003 65 338.503 64.4ZM337.203 67.3L337.003 67.6C337.003 67.5 337.003 67.4 337.003 67.3H337.203ZM328.603 85.9C328.903 85.2 329.203 84.5 329.603 83.8C329.803 83.1 330.103 82.3 330.503 81.5C330.803 80.5 331.203 79.5 331.703 78.5C332.003 77.9 332.403 77.3 332.803 76.7C332.803 76.1 333.103 75.6 333.403 75.1C334.103 72.9 335.203 70.8 336.403 68.7C336.403 68.5 336.503 68.2 336.803 67.9C336.603 68.2 336.503 68.5 336.403 68.7C335.603 70.9 334.703 73 333.403 75.1C333.303 75.6 333.103 76.2 332.803 76.7C331.903 78.5 331.203 80.4 330.403 82.2C330.103 82.8 329.803 83.3 329.603 83.8C329.403 84.4 329.303 85 329.003 85.6C329.003 85.7 328.903 85.9 328.803 86C328.703 86 328.703 86 328.603 86V85.9ZM425.103 76.4L424.903 77.2C425.003 76.9 425.103 76.7 425.103 76.4ZM424.903 77.2H424.603C424.603 77.4 424.703 77.4 424.903 77.2ZM370.903 84.6C368.103 89.4 365.203 94.2 362.303 99L356.303 109C353.703 113.2 351.003 117.4 348.403 121.5C345.303 126.3 342.303 131.1 339.203 135.8C336.803 139.6 334.103 143.4 331.503 147.1C330.403 148.8 329.203 150.3 328.003 151.9C327.703 152.3 327.303 152.6 326.903 153C326.803 153.2 326.703 153.4 326.603 153.5C326.503 153.6 326.403 153.7 326.403 153.8C326.403 153.7 326.503 153.6 326.503 153.6C326.703 153.4 326.803 153.2 326.903 153C327.203 152.6 327.403 152.1 327.703 151.7C332.403 145.5 336.503 139.1 340.703 132.7C343.303 128.5 346.103 124.3 348.803 120.1C351.103 116.4 353.403 112.8 355.603 109.1L367.703 89.2C369.703 86 371.403 82.8 373.303 79.6C373.703 78.9 374.103 78.3 374.503 77.7C374.803 77.9 374.603 78.1 374.403 78.3C373.303 80.4 372.103 82.5 370.903 84.6ZM367.603 85.4H367.703C367.703 85.5 367.603 85.6 367.603 85.6H367.503C367.503 85.5 367.503 85.5 367.603 85.4ZM327.803 88.1C327.703 88.9 327.503 89.4 327.003 90.1C327.103 89.3 327.403 88.9 327.803 88.1ZM367.703 91.7L367.803 91.6C367.703 91.6 367.603 91.5 367.503 91.5C367.603 91.6 367.603 91.7 367.703 91.7ZM326.203 92H326.303C326.303 92 326.303 92 326.203 92.1V92ZM362.803 93.4C362.903 93.7 362.703 93.9 362.503 94C362.603 93.7 362.703 93.6 362.803 93.4ZM325.503 93.6C325.603 93.6 325.603 93.6 325.603 93.7C325.603 93.7 325.603 93.7 325.503 93.8V93.6ZM324.603 96.1C324.403 96.9 324.403 96.9 323.903 97.7C324.203 97.1 324.303 96.7 324.603 96.1ZM358.803 100.3C358.603 100.8 358.303 101.4 358.103 102V102.1L358.203 102L356.803 103.8C356.503 104.2 356.103 104.6 355.903 105.1C356.603 103.4 357.703 101.8 358.803 100.3ZM354.703 107.9C354.603 108.2 354.403 108.4 354.303 108.7C354.403 108.4 354.503 108.1 354.703 107.9ZM353.803 108.5C353.703 108.9 353.403 109.4 353.003 109.7C353.103 109.2 353.403 108.8 353.803 108.5ZM408.203 108.7L408.303 108.6C408.203 108.6 408.203 108.7 408.203 108.7ZM408.203 108.7C408.103 108.8 408.103 108.8 408.103 108.9C408.103 108.8 408.203 108.8 408.203 108.7ZM352.103 111.3C351.803 111.8 351.603 112.3 351.203 112.9C351.003 113.4 350.703 113.9 350.503 114.3C350.603 114.4 350.703 114.4 350.803 114.4C350.603 114.6 350.403 114.8 350.303 115.1C350.303 114.8 350.503 114.6 350.503 114.3C349.803 114.9 349.503 115.6 349.103 116.4H349.203H349.403C349.303 116.7 349.203 116.9 348.903 117.2C349.103 116.9 349.103 116.6 349.203 116.4L348.603 116.9C349.503 115 350.603 113.1 352.103 111.3ZM403.803 114.7C403.103 116 402.403 117.2 401.703 118.4C401.503 118.9 401.203 119.3 400.803 119.7C401.303 118.3 403.203 114.9 404.203 113.6C404.103 114 404.003 114.4 403.803 114.7ZM324.703 152.5C325.003 152.1 325.203 151.8 325.503 151.5C325.803 150.9 326.203 150.4 326.703 149.9C326.803 149.8 327.003 149.6 327.103 149.4C327.503 148.8 327.703 148.2 328.203 147.6C332.503 141.5 336.603 135.2 340.603 128.9C342.803 125.7 344.803 122.4 347.003 119.1C347.203 118.6 347.603 118.2 348.103 117.7C348.003 117.9 347.903 118.2 347.803 118.5L348.503 117.9C348.303 118.4 348.103 118.8 347.703 119.2C347.503 119.5 347.303 119.7 347.203 120C347.303 119.7 347.303 119.5 347.503 119.2C346.803 119.8 346.303 120.5 346.103 121.3C346.303 121.1 346.503 120.9 346.703 120.8C346.603 121.2 346.303 121.7 345.903 122C345.603 122.7 345.303 123.4 344.603 124V124.1H344.503C344.403 124.3 344.303 124.6 344.203 124.8V124.9C344.003 125 343.803 125.2 343.703 125.4L343.303 126.1C343.003 126.6 342.903 127 342.603 127.4C341.203 129.6 339.703 131.9 338.303 134.1L337.703 134.9V134.8H337.403C337.503 134.8 337.603 134.8 337.703 134.9C337.003 136.2 336.203 137.5 335.103 138.7H335.203C334.903 139.2 334.703 139.6 334.203 140C334.103 140.4 333.903 140.9 333.403 141.3V141.2H333.103L333.003 141.3H333.103H333.303C333.103 141.8 332.903 142.1 332.503 142.5L332.203 143.1C332.003 143.5 331.803 144 331.303 144.3C331.103 144.5 331.003 144.7 330.903 144.9C330.803 145.3 330.403 145.8 330.003 146.1C329.903 146.3 329.803 146.5 329.703 146.6V146.7H329.403C329.403 146.7 329.403 146.6 329.503 146.6C329.403 146.6 329.403 146.6 329.403 146.6L328.203 148.4C327.903 148.8 327.403 149.1 327.103 149.5L326.803 150C326.503 150.6 326.203 151.1 325.503 151.5C325.503 151.9 325.203 152.3 324.703 152.5ZM347.403 119.2H347.503H347.703C347.803 119 347.803 118.7 347.803 118.4C347.703 118.7 347.603 119 347.403 119.2ZM350.203 120.4C350.203 120.4 350.203 120.3 350.303 120.3C350.203 120.3 350.203 120.3 350.203 120.4ZM345.603 122H345.903C345.903 121.8 346.103 121.5 346.103 121.2C346.003 121.5 345.703 121.7 345.603 122ZM399.403 122.7C399.103 123.1 398.903 123.6 398.703 124C397.603 126.1 396.403 128.2 395.203 130.2C392.003 136 388.803 141.7 385.203 147.3C383.803 149.4 382.403 151.5 380.903 153.5C380.403 154 380.203 154.6 379.503 154.8C379.803 154.5 379.903 154.2 380.103 153.9C382.503 150.6 384.703 147.2 386.803 143.8C390.503 137.8 394.003 131.7 397.403 125.6L399.503 121.9C399.603 121.7 399.703 121.6 400.103 121.4L399.403 122.7ZM344.803 123.3C344.803 123.4 344.803 123.4 344.703 123.5C344.803 123.5 344.803 123.4 344.803 123.4V123.3ZM344.303 124.1C344.403 124.1 344.403 124.1 344.503 124.1L344.603 124C344.703 123.8 344.703 123.7 344.703 123.5L344.303 124.1ZM343.403 125.4H343.503H343.703C343.803 125.2 344.003 125 344.203 124.8C344.203 124.5 344.303 124.3 344.303 124.1C344.003 124.5 343.803 124.9 343.403 125.4ZM399.703 124.1H399.403C399.503 124.2 399.503 124.4 399.703 124.1ZM343.103 126.1H343.303C343.403 125.9 343.403 125.6 343.503 125.4C343.303 125.6 343.203 125.9 343.103 126.1ZM342.903 126.2C342.903 126.2 343.003 126.1 343.103 126.1H343.003L342.903 126.2ZM392.103 130.9C392.003 131.4 391.903 131.8 391.403 132C391.603 131.7 391.603 131.3 392.103 130.9ZM377.503 154.2V153.9C380.703 149.5 383.603 144.9 386.403 140.3C387.003 139.4 387.403 138.5 388.103 137.7C388.303 137.4 388.403 137.1 388.503 136.8C389.203 135.6 389.903 134.4 390.703 133.1L391.003 132.8C390.203 134.5 389.403 136.1 388.103 137.7C387.903 138.3 387.603 138.9 387.403 139.4C387.503 139.4 387.603 139.5 387.703 139.5C387.403 140 387.303 140.5 387.003 141C385.503 143.4 384.003 145.8 382.503 148.1C382.303 148.6 381.903 149 381.403 149.5C381.403 149.9 381.003 150.4 380.603 150.7V150.8C380.503 151 380.403 151.1 380.303 151.3H380.003C380.003 151.3 380.003 151.3 380.003 151.2C379.203 152.2 378.403 153.2 377.503 154.2ZM393.903 134.4C393.803 134.4 393.703 134.4 393.603 134.3C393.603 134.6 393.503 134.9 393.503 135.1L393.903 134.4ZM393.303 135.3C393.403 135.2 393.403 135.2 393.503 135.1H393.203C393.303 135.2 393.303 135.2 393.303 135.3ZM391.303 138.4C391.403 138.5 391.503 138.5 391.603 138.5C391.503 138.5 391.403 138.4 391.303 138.4ZM334.203 140C334.103 140 334.003 139.9 333.903 139.9C334.003 140 334.103 140 334.203 140ZM387.003 140.3C386.803 140.5 386.703 140.8 386.503 141.1L386.603 141C386.703 140.8 386.803 140.5 387.003 140.3ZM386.103 141.8C386.203 141.6 386.403 141.3 386.503 141.1L386.103 141.8ZM389.503 141.5C389.403 141.8 389.403 142 389.203 142.3C389.503 142 389.503 141.8 389.503 141.5ZM332.303 142.5C332.103 142.7 332.003 142.9 331.903 143C332.003 143 332.103 143 332.203 143.1C332.203 142.9 332.203 142.7 332.303 142.5ZM385.203 143.3L385.603 142.6C385.503 142.8 385.303 143 385.203 143.3ZM331.903 143L331.803 143.1C331.903 143.1 331.903 143 331.903 143ZM329.503 146.6C329.503 146.6 329.603 146.6 329.703 146.6C329.703 146.4 329.803 146.3 329.803 146.1L329.503 146.6ZM380.303 150.8L380.003 151.2C380.103 151.3 380.203 151.3 380.303 151.3C380.303 151.1 380.303 151 380.403 150.8H380.603V150.7C380.703 150.4 380.703 150.2 380.903 150C380.603 150.2 380.503 150.5 380.303 150.8ZM323.803 153.8C323.803 153.7 323.903 153.6 323.903 153.6L324.003 153.5C323.903 153.6 323.803 153.7 323.803 153.8ZM459.283 112C459.483 111.6 459.983 111.7 460.083 111.2C460.183 110.8 459.583 110.7 459.383 110.3V110.2C459.383 109.7 458.683 109.6 458.183 109.6C457.883 109.6 457.583 109.6 457.383 109.7C454.183 110.5 456.583 110.6 446.283 111.9C444.783 112.1 443.383 112.1 441.883 112C441.283 112 440.883 111.8 440.783 111.1C440.483 110 439.783 109.2 439.083 108.4C438.683 107.9 438.083 107.8 437.783 108.7C437.583 109.6 437.183 110.5 436.883 111.4C436.183 113.6 435.283 115.8 434.083 117.8C432.583 120.2 430.783 122.3 428.583 124.2C428.283 124.4 427.983 124.7 427.683 124.8C427.283 124.9 426.983 124.7 427.083 124.4C427.083 123.8 427.183 123.2 427.383 122.7C427.883 120.4 428.883 118.4 429.783 116.3C430.283 115.3 430.883 114.3 431.483 113.4C432.283 112.1 433.183 110.8 433.983 109.6C434.283 109.1 434.383 108.6 434.483 108.1C434.483 107.5 434.083 107.2 433.783 107C433.383 106.8 433.083 107 432.883 107.2C432.583 107.4 432.383 107.6 432.183 107.8C431.283 108.9 430.283 110 429.383 111.2C427.783 113.5 426.283 115.9 425.183 118.5C424.783 119.5 424.383 120.4 424.083 121.3C423.483 123.4 423.783 125.3 425.283 126.9C425.883 127.6 426.683 128.1 427.583 128.2C429.183 128.4 430.383 127.5 431.683 126.8C431.783 126.7 431.783 126.7 431.783 126.6C432.183 125.8 432.883 125.3 433.483 124.7V124.8L433.783 124.5C433.783 124.4 433.883 124.3 433.983 124.2C434.483 123.6 435.183 123.2 435.483 122.4C435.483 122.3 435.583 122.2 435.683 122.1C436.383 121.4 436.783 120.6 437.283 119.7C437.883 118.4 438.483 117.1 438.983 115.7C439.083 115.4 439.283 115.1 439.383 114.8C439.483 114.6 439.683 114.5 439.883 114.6L440.483 114.9C441.583 115.6 442.783 115.9 444.183 115.9C446.283 116 448.483 115.7 450.583 115.3C454.583 114.6 454.583 114.2 458.483 112.9C458.783 112.8 459.083 112.8 459.483 112.7C459.783 112.6 460.083 112.3 460.283 112H459.283ZM429.483 125.5C429.383 125.5 429.283 125.5 429.283 125.5H428.783C428.883 125.2 429.183 125 429.383 124.9C429.483 124.9 429.583 124.8 429.783 124.8C429.783 124.8 429.783 124.9 429.683 125H430.183C430.083 125.1 429.883 125.2 429.783 125.2L429.483 125.5ZM430.283 126.8C430.183 126.8 430.183 126.8 430.083 126.9C430.083 126.8 430.183 126.7 430.183 126.7C430.783 126 431.483 125.5 432.183 125C431.883 125.9 431.183 126.5 430.283 126.8ZM512.498 111.5C512.598 111.3 512.598 111.1 512.398 111C511.798 110.3 510.998 109.9 509.998 110.3C509.698 110.5 509.398 110.6 508.998 110.8C508.598 111 508.098 111.2 507.598 111.5C506.698 111.9 505.598 112.3 504.598 112.8C502.198 114.2 499.598 115.4 496.998 116.7C495.698 117.4 494.198 118.1 492.698 118.9C492.398 119 492.098 119.2 491.798 119.3H491.398C491.298 119.2 491.298 119.1 491.298 119C491.698 118.2 491.898 117.4 492.198 116.7C492.598 115.7 492.998 114.7 493.098 113.6C493.298 112.9 493.198 112.3 492.898 111.6C492.498 110.9 491.798 110.2 491.198 109.6C490.198 108.8 489.198 108.5 487.898 108.9C487.298 109 486.598 109.3 485.998 109.6C484.298 110.2 482.698 111.1 481.198 111.9C478.598 113.3 476.298 115 474.098 116.9C473.598 117.2 473.298 117.6 472.898 117.8C472.698 117.9 472.498 117.8 472.398 117.6C472.298 117.1 472.398 116.7 472.898 116.5C472.998 116.3 473.098 116.1 473.298 115.9C473.198 115.6 473.298 115.4 473.498 115.2C473.598 115 473.798 114.8 473.898 114.6V114.3C473.998 114.1 474.098 114.1 474.198 113.9C474.298 113.7 474.298 113.6 474.298 113.5C474.998 112.1 475.798 110.8 476.798 109.6C476.898 109.2 477.098 108.8 477.398 108.4C478.798 106.3 480.198 104.4 481.598 102.3L482.198 101.5C482.398 101.1 482.298 100.8 482.298 100.5C482.298 100.1 481.898 100.3 481.798 100.1C481.498 99.7 481.298 99.8 480.998 100C480.298 100.6 479.598 101.2 478.998 101.8C477.598 103.4 476.198 105 474.998 106.6C473.398 108.7 471.898 110.9 470.598 113.1C470.098 114.1 469.598 115 468.998 116C468.398 117.1 467.798 118.4 467.498 119.7C467.198 120.6 467.398 121.3 468.098 122L468.598 122.6C469.098 123.5 470.998 123.9 471.898 123.4C472.698 123.2 473.298 122.8 473.898 122.3C475.598 121.1 477.198 119.8 478.798 118.5H478.698C479.198 118.1 479.698 117.7 480.198 117.4C480.298 117.3 480.498 117.1 480.698 117C481.398 116.6 482.198 116.1 482.998 115.5C484.498 114.7 485.998 113.9 487.498 113.2C487.898 113 488.298 112.9 488.598 112.8C488.998 112.7 489.198 112.9 489.098 113.2L488.498 114.8C487.898 115.9 487.498 117.1 487.198 118.3C486.898 119.3 487.198 120 487.698 120.8C487.898 121.2 488.198 121.5 488.498 121.9C489.498 123.2 490.798 123.6 492.398 123.2C493.098 123.1 493.698 122.8 494.398 122.6C495.598 122 496.698 121.4 497.898 120.7C499.798 119.5 501.798 118.4 503.698 117.2L504.998 116.5C506.898 115.4 508.798 114.2 510.798 113.3C511.298 113 511.698 112.8 512.098 112.5C512.298 112.4 512.498 112.2 512.598 112H512.098C512.098 111.7 512.398 111.6 512.498 111.5ZM509.598 113.2C509.498 113.3 509.398 113.3 509.398 113.2L509.498 113.1C509.598 113.1 509.598 113 509.698 113C509.598 113.1 509.598 113.1 509.598 113.2ZM472.598 119.8L472.898 119.5C473.098 119.1 473.498 118.8 473.898 118.6C474.898 117.5 476.098 116.6 477.398 115.8C477.798 115.4 478.298 114.9 478.798 114.7C478.998 114.5 479.298 114.3 479.498 114.3C479.698 114.1 479.998 113.9 480.198 113.9C480.398 113.6 480.598 113.5 480.798 113.5C480.698 113.7 480.498 113.9 480.198 113.9C480.098 114.1 479.898 114.3 479.598 114.3C479.498 114.5 479.498 114.7 479.398 114.8C479.298 114.8 479.098 114.8 478.998 114.8L478.698 115.2C478.698 115.3 478.598 115.4 478.498 115.4H478.698C478.698 115.4 478.598 115.5 478.498 115.6V115.4C478.198 115.4 478.098 115.6 477.898 115.8C477.698 115.9 477.598 115.9 477.498 116C477.298 116.1 477.098 116.3 476.998 116.5C476.898 116.6 476.898 116.7 476.798 116.7H476.898C476.898 116.7 476.898 116.8 476.798 116.9V116.7C476.498 116.7 476.198 116.9 476.098 117.2H476.498C476.298 117.4 476.198 117.5 475.898 117.6C475.798 117.7 475.698 117.7 475.698 117.8V117.6C475.698 117.6 475.798 117.6 475.898 117.6V117.4C475.798 117.4 475.698 117.5 475.598 117.6C475.598 117.6 475.598 117.7 475.498 117.8H475.598C475.598 117.9 475.598 118 475.498 118V117.8C475.198 117.9 474.898 118 474.798 118.2H475.198C475.098 118.3 474.898 118.4 474.898 118.5C474.798 118.4 474.798 118.3 474.798 118.2L474.598 118.5C474.698 118.5 474.698 118.5 474.798 118.5L474.598 118.7C474.498 118.7 474.398 118.8 474.398 118.9C474.398 118.8 474.398 118.7 474.298 118.7H473.998C473.698 119.1 473.398 119.4 472.898 119.6C472.798 119.6 472.698 119.7 472.598 119.8ZM507.398 114.3C507.098 114.8 506.698 114.8 506.298 115C506.598 114.6 506.898 114.4 507.398 114.3C507.498 114.2 507.598 114.1 507.798 114.1C507.598 114.2 507.498 114.2 507.398 114.3ZM481.498 115.4L481.298 115.7C479.298 117 477.498 118.6 475.598 120C475.198 120.4 474.798 120.9 474.198 121.1C473.998 121.3 473.798 121.4 473.598 121.4C473.698 121.3 473.898 121.1 474.198 121.1C474.298 120.9 474.298 120.7 474.398 120.6C476.498 118.9 478.498 117.1 480.798 115.7C480.998 115.5 481.298 115.4 481.498 115.4C481.798 115 482.098 114.8 482.598 114.8C482.298 115.1 481.998 115.4 481.498 115.4ZM479.098 115.2L478.798 115.4C478.798 115.4 478.798 115.3 478.798 115.2H479.098ZM501.998 115.4L502.298 115.2C502.198 115.4 502.098 115.4 501.998 115.4ZM505.498 115.4C505.498 115.3 505.698 115.3 505.798 115.3C505.698 115.3 505.498 115.4 505.498 115.4ZM504.998 115.6C505.098 115.5 505.298 115.5 505.398 115.4C505.298 115.5 505.198 115.6 504.998 115.6ZM503.898 116.2C503.998 116.1 504.198 116.1 504.198 116.1C504.198 116.1 504.098 116.2 503.898 116.2ZM503.498 116.5C503.498 116.4 503.698 116.3 503.898 116.3C503.698 116.4 503.598 116.5 503.498 116.5ZM502.398 117.2C502.598 116.7 502.998 116.7 503.398 116.5C503.098 116.8 502.798 117 502.398 117.2ZM501.998 117.4C502.098 117.3 502.198 117.2 502.298 117.2L501.998 117.4ZM501.598 117.5C501.598 117.5 501.698 117.4 501.898 117.4C501.798 117.5 501.598 117.5 501.598 117.5ZM500.898 118C500.998 117.8 501.198 117.7 501.498 117.6C501.398 117.9 501.098 117.9 500.898 118ZM499.998 118.4C500.098 118.4 500.298 118.3 500.298 118.2C500.298 118.4 500.198 118.4 499.998 118.4ZM474.598 118.7V118.5C474.498 118.6 474.398 118.6 474.298 118.7H474.598ZM499.298 118.9L498.998 119.1C498.998 119 499.198 119 499.298 118.9C499.498 118.7 499.698 118.6 499.898 118.5C499.798 118.7 499.598 118.8 499.298 118.9ZM498.298 119.5C498.398 119.3 498.598 119.2 498.898 119.1C498.698 119.3 498.498 119.4 498.298 119.5ZM568.536 114.7C568.136 113.8 567.136 113.4 566.236 113.6C565.636 113.7 565.036 114.1 564.336 114.4C561.236 115.7 558.236 117.6 555.336 119.4C552.436 121.2 549.636 123 546.936 124.8C546.336 125.2 545.736 125.7 545.136 126C544.736 126.2 544.336 126.4 543.836 126.2C543.936 126 543.936 125.8 544.036 125.6C544.536 124.6 544.936 123.7 545.236 122.7C545.336 122.4 545.636 122.2 545.736 121.9C545.736 121.4 546.036 121 546.236 120.6C546.336 120.2 546.536 119.8 546.736 119.4C546.836 119.3 546.936 119.1 547.036 118.9C547.036 118.7 547.036 118.4 547.236 118.2C547.336 117.8 547.436 117.4 547.736 117.2L548.036 116.4C548.336 116.1 548.336 115.6 548.536 115.2C548.636 114.9 548.836 114.7 549.036 114.4C549.236 114.1 548.936 113.7 549.236 113.4C549.436 112.9 549.636 112.4 550.036 111.9C550.036 111.9 550.036 111.8 550.036 111.7V111.6C550.136 110.9 550.436 110.3 550.736 109.7C551.136 108.8 551.236 107.9 551.736 107.1V107.2C551.936 106.8 552.136 106.4 552.336 106.1C552.836 105.3 553.036 104.4 553.336 103.5C554.036 101.5 554.736 99.5 555.536 97.5C555.736 97 555.836 96.5 556.036 96C556.236 95.4 556.036 94.9 555.736 94.4C555.336 93.7 554.736 93.1 554.136 92.5C553.836 92.2 553.336 92.3 553.036 92.6L551.536 94.1C550.536 95.1 549.936 96.3 549.136 97.3C547.336 99.5 545.736 102 543.936 104.2C543.436 104.8 543.036 105.4 542.436 106C542.136 106.3 541.936 106.3 541.636 106.2C541.236 106.1 540.936 105.8 540.636 105.6C539.536 104.9 538.236 104.6 536.936 104.5C533.636 104.2 530.536 104.9 527.836 106.8C525.736 108.3 524.136 110.2 522.936 112.4C522.236 113.7 521.836 115 521.836 116.4C521.836 116.6 521.836 116.8 521.936 117C522.836 118.7 523.036 120.3 524.336 121.5C525.736 122.8 527.336 123.4 529.136 123C530.136 122.8 530.936 122.5 531.736 122.1C533.536 121.2 534.936 120 536.336 118.6C536.536 118.4 536.636 118.3 536.736 118.1C537.136 117.4 537.836 116.7 538.436 116.2L538.736 115.9C538.836 115.8 538.936 115.7 539.036 115.7C539.036 115.6 539.136 115.5 539.236 115.4C540.436 113.6 542.336 112.4 543.336 110.4C543.436 110.2 543.636 110.2 543.836 110.3C544.036 110.4 544.136 110.6 544.236 110.6C544.636 110.6 544.936 110.5 544.936 110.2C544.936 109.9 544.836 109.6 544.836 109.3C544.836 108.9 544.836 108.6 545.036 108.2C545.236 107.9 545.436 107.6 545.736 107.4L547.936 104.4C548.236 104.7 548.336 105.1 548.136 105.4C547.436 106.4 547.236 107.7 546.836 108.8C546.136 110.9 544.936 112.8 544.136 114.8C543.936 115.3 543.636 115.8 543.436 116.3C542.436 118.9 541.236 121.5 540.136 124.1C539.236 126.3 538.136 128.4 537.336 130.6C537.036 131.4 536.536 132 535.836 132.6C534.836 133.5 533.636 134.2 532.636 135.1C529.836 137.6 527.036 140.1 524.336 142.7C520.236 146.6 516.536 150.9 513.136 155.5C511.036 158.3 509.036 161.1 507.136 164C505.636 166.3 504.136 168.7 502.736 171.1C500.936 174.2 499.136 177.3 497.936 180.7C497.136 182.9 496.136 185.1 495.736 187.4C495.536 188.5 495.436 189.6 495.436 190.7C495.436 192 495.636 193.3 496.136 194.5C496.936 196.5 499.436 197.9 501.636 197.7C502.836 197.6 503.936 197.2 504.936 196.6C505.736 196.1 506.536 195.5 507.236 194.9C509.036 193.3 510.636 191.5 512.136 189.7C514.636 186.7 516.536 183.4 518.536 180.1C520.236 177.3 521.736 174.5 523.336 171.6C524.736 169 526.036 166.4 527.436 163.7C528.936 160.8 530.336 157.7 531.736 154.7C531.936 154.4 532.036 154.1 532.236 153.7C532.636 152.8 533.036 151.9 533.536 151H533.436C533.536 150.8 533.636 150.6 533.736 150.5C533.836 150.1 533.736 149.8 534.036 149.5H533.936C534.036 149.3 534.136 149.1 534.236 149L534.736 148.2C534.836 148.1 534.936 147.9 534.936 147.7C535.136 147.2 535.536 146.8 535.436 146.2H535.536C535.536 145.7 535.736 145.3 536.036 144.9L535.936 145L536.236 144.4V144.5C536.236 144 536.536 143.6 536.736 143.2C536.836 143 536.936 142.9 536.936 142.7C537.036 142.2 537.236 141.8 537.436 141.4C537.536 141.3 537.636 141.1 537.736 141V140.9C537.736 140.5 537.936 140.1 538.036 139.8C538.436 138.7 538.936 137.7 539.436 136.7C539.736 136.1 539.836 135.5 540.236 134.9C540.236 134.8 540.336 134.6 540.436 134.4C540.536 133.8 540.836 133.2 541.136 132.7C541.236 132.5 541.336 132.5 541.436 132.7H541.536C541.836 131.8 542.336 131.1 543.136 130.5C543.736 130.1 544.436 129.6 545.036 129.1C547.836 126.7 551.036 124.9 554.136 123C557.736 120.8 561.236 118.4 565.036 116.5C566.036 116 567.136 115.2 568.336 115.2C568.536 115.2 568.636 114.9 568.536 114.7ZM540.836 107.9L540.636 108.4C540.136 109.5 539.136 110.2 538.336 111.2C536.636 113.3 534.736 115.2 532.736 117C531.736 117.9 530.736 118.6 529.636 119.4C528.936 119.9 528.136 120.4 527.236 120.4C527.136 120.4 527.036 120.5 526.936 120.5C525.836 120.5 525.536 120.4 525.336 119.4C525.136 118.4 525.236 117.3 525.436 116.3C525.536 115.8 525.736 115.2 525.936 114.7V114.4C526.436 113.2 527.036 112.3 527.936 111.4H528.036C528.036 111.3 528.136 111.2 528.236 111.2C528.336 111.1 528.436 111.1 528.536 111.1C528.936 110.4 529.636 109.8 530.336 109.3C532.136 108 534.036 107.2 536.236 106.9C537.536 106.7 538.936 106.5 540.136 107.1L540.736 107.4C540.936 107.5 540.936 107.7 540.836 107.9ZM526.736 109.2C526.736 109.3 526.736 109.3 526.736 109.4L526.936 109.2C527.036 109.1 527.136 109 527.236 108.9H527.036C527.036 108.8 527.136 108.7 527.236 108.7C527.436 108.2 527.736 108 528.136 107.8C528.436 107.5 528.736 107.3 529.136 107.2C529.136 107.3 529.036 107.5 528.936 107.7C528.836 107.8 528.636 108 528.436 108.1C528.436 108.1 528.336 108 528.236 108C528.236 108 528.236 108.1 528.236 108.2H528.436C528.336 108.2 528.336 108.3 528.236 108.4C528.136 108.5 528.036 108.6 527.936 108.6V108.4C527.936 108.5 527.836 108.6 527.736 108.6C527.536 108.6 527.436 108.7 527.236 108.7C527.236 108.7 527.236 108.8 527.236 108.9H527.736C527.736 108.8 527.736 108.7 527.736 108.7H527.936C527.836 108.7 527.836 108.8 527.736 108.9C527.436 109.2 527.136 109.5 526.736 109.4H526.436C526.536 109.3 526.636 109.2 526.736 109.2ZM531.136 107.9C531.036 108.2 530.836 108.4 530.536 108.5C530.336 108.7 530.136 108.9 529.936 109C528.836 109.6 527.836 110.5 527.336 111.5C527.236 111.7 526.936 111.8 526.736 111.9C526.636 112.2 526.436 112.4 526.236 112.6C526.336 112.3 526.436 112.1 526.736 111.9L526.936 111.4C527.636 110.1 528.936 109 530.436 108.3C530.636 108.1 530.836 108 531.136 107.9ZM528.236 108.4V108.2C528.136 108.2 528.036 108.3 527.936 108.4H528.236ZM526.936 108.9C526.936 109 526.936 109.1 526.936 109.1H526.736C526.836 109.1 526.836 109 526.936 108.9ZM526.236 109.7C526.136 110.1 525.836 110.3 525.536 110.6C525.636 110.2 525.836 109.9 526.236 109.7ZM528.436 111.2C528.436 111.2 528.336 111.2 528.236 111.2V111.4C528.336 111.3 528.336 111.2 528.436 111.2ZM536.736 115.2C536.636 115.3 536.536 115.3 536.536 115.4C536.536 115.3 536.536 115.3 536.536 115.2H536.236C536.236 115.3 536.236 115.3 536.236 115.4H536.436C536.436 115.5 536.336 115.6 536.236 115.6C536.236 115.6 536.236 115.5 536.236 115.4H536.036C536.036 115.3 536.136 115.3 536.236 115.2C536.336 114.8 536.636 114.5 536.936 114.2C536.836 114.4 536.836 114.7 536.736 114.9C536.636 115 536.536 115.1 536.536 115.2H536.736ZM535.936 115.9C535.936 116 535.836 116.1 535.736 116.1C535.736 116.1 535.736 116 535.736 115.9H535.536C535.536 115.8 535.636 115.8 535.736 115.7C535.836 115.6 535.936 115.5 535.936 115.4C535.936 115.5 535.936 115.6 535.936 115.7H535.736C535.736 115.8 535.736 115.8 535.736 115.9H535.936ZM536.236 115.7C536.136 115.8 536.036 115.8 536.036 115.9C536.036 115.8 536.036 115.8 536.036 115.7H536.236ZM539.236 115.7C539.136 115.7 539.036 115.7 539.036 115.7V115.9C539.036 115.8 539.136 115.7 539.236 115.7ZM532.536 118.6C533.136 117.9 533.836 117.2 534.736 116.6C534.836 116.6 534.836 116.5 534.936 116.4C535.036 116.3 535.136 116.2 535.236 116.2C535.236 116 535.336 116 535.436 115.9C535.436 116 535.436 116.1 535.436 116.2H535.236C535.236 116.3 535.236 116.3 535.236 116.4H535.436C535.436 116.5 535.336 116.6 535.236 116.6C535.236 116.6 535.236 116.5 535.236 116.4H534.936C534.936 116.5 534.936 116.6 534.936 116.7H534.736C534.736 116.8 534.736 116.8 534.736 116.9H534.936C534.936 117 534.836 117.1 534.736 117.2C534.636 117.3 534.536 117.3 534.536 117.4C534.536 117.3 534.436 117.2 534.436 117.2C534.436 117.3 534.336 117.3 534.236 117.4H534.436C534.436 117.5 534.336 117.6 534.236 117.6C534.236 117.6 534.236 117.5 534.236 117.4L533.936 117.7C533.836 117.8 533.836 117.8 533.736 117.9H533.936C533.936 118 533.836 118.1 533.736 118.1C533.736 118.1 533.736 118 533.736 117.9L533.436 118.2C533.136 118.3 532.836 118.6 532.536 118.6ZM538.936 115.9C538.936 115.9 538.836 115.9 538.736 115.9V116.1C538.836 116.1 538.936 116 538.936 115.9ZM535.736 116.2C535.636 116.3 535.536 116.3 535.536 116.4C535.536 116.3 535.536 116.3 535.536 116.2H535.736ZM535.236 116.7C535.136 116.8 535.036 116.8 535.036 116.9C535.036 116.8 535.036 116.8 535.036 116.7H535.236ZM534.736 117.2V116.9C534.636 117 534.536 117.1 534.436 117.2H534.736ZM534.436 119.6C534.436 119.6 534.536 119.5 534.636 119.4L536.836 117.2C536.136 118.3 535.436 119.3 534.436 119.6ZM534.036 117.9C534.036 117.8 534.036 117.7 534.036 117.7H534.236C534.136 117.8 534.036 117.8 534.036 117.9ZM545.836 121.9H545.736L545.836 122V121.9ZM553.036 123.2C553.236 122.9 553.436 122.7 553.736 122.7C553.636 123 553.336 123.1 553.036 123.2ZM549.536 123.9C549.736 123.7 549.936 123.5 550.236 123.5C550.036 123.7 549.836 123.8 549.536 123.9ZM551.036 124.4C551.236 124.3 551.336 124.3 551.436 124.2C551.336 124.3 551.236 124.4 551.036 124.4ZM544.836 127.2C545.236 126.6 545.836 126.2 546.436 125.9C546.136 126.6 545.536 127 544.836 127.2ZM548.136 126.4L548.436 126.2C548.336 126.3 548.236 126.4 548.136 126.4ZM547.036 127.2C547.236 126.9 547.436 126.8 547.736 126.7C547.536 126.9 547.336 127.1 547.036 127.2ZM545.536 128.2C545.636 128 545.836 128 545.936 128C545.836 128.1 545.736 128.1 545.536 128.2ZM544.536 128.9C544.636 128.7 544.936 128.5 545.236 128.5C545.036 128.7 544.836 128.9 544.536 128.9ZM543.736 129.4C543.936 129.2 544.136 129 544.436 129C544.336 129.2 544.036 129.3 543.736 129.4ZM543.036 129.9C543.136 129.8 543.336 129.8 543.436 129.7C543.336 129.8 543.236 129.9 543.036 129.9ZM539.236 135.2C539.136 136.3 538.636 137.1 538.336 138C537.036 142 535.036 145.7 533.336 149.5C532.836 150.7 532.236 151.8 531.636 152.9C533.036 149.6 534.336 146.1 535.736 142.8C536.636 140.7 537.536 138.4 538.536 136.4C538.736 136 538.936 135.6 539.236 135.2C539.236 134.5 539.536 134 539.936 133.5C539.836 134.1 539.736 134.7 539.236 135.2ZM535.436 134C535.336 134.4 535.036 134.7 534.736 134.9C534.636 134.9 534.536 134.8 534.536 134.7C534.736 134.3 535.036 134.1 535.436 134ZM540.536 134.5V134.4H540.436C540.436 134.4 540.536 134.4 540.536 134.5ZM540.836 134.5V134.4C540.736 134.4 540.736 134.4 540.836 134.5ZM540.836 134.5H540.736H540.536C540.536 134.6 540.536 134.8 540.536 134.9L540.836 134.5ZM521.236 147.2L521.436 147C521.536 146.9 521.636 146.8 521.736 146.7L521.936 146.5C522.036 146.4 522.136 146.3 522.236 146.2L522.436 146C522.536 145.9 522.636 145.8 522.736 145.7L522.936 145.5C523.036 145.2 523.236 144.9 523.436 144.7L527.036 141.1C527.236 140.9 527.436 140.8 527.636 140.7L527.936 140.4C528.036 140.3 528.136 140.2 528.236 140.2C528.236 140.1 528.336 140 528.436 139.9C528.536 139.9 528.636 139.8 528.736 139.7C528.736 139.6 528.836 139.5 528.936 139.5C529.036 139.3 529.136 139.1 529.236 139C530.136 138.1 531.036 137.5 531.936 136.6C532.136 136.4 532.436 136.3 532.636 136.2L532.936 135.9C533.236 135.5 533.636 135.1 534.236 134.9C534.336 134.8 534.336 134.8 534.436 134.7V134.9C534.436 135 534.336 135 534.236 135C534.036 135.5 533.636 135.9 533.236 136.2C533.136 136.3 533.036 136.4 532.936 136.4V136.5C531.736 137.5 530.436 138.6 529.236 139.7C529.136 139.8 529.036 139.9 528.936 139.9V139.7C528.836 139.7 528.836 139.7 528.736 139.7V139.9C528.636 140 528.536 140 528.536 140C528.536 140.1 528.536 140.1 528.436 140.2H528.736C528.736 140.1 528.736 140 528.736 140H528.936C528.836 140 528.836 140.1 528.736 140.2C528.636 140.3 528.536 140.4 528.436 140.4V140.2C528.436 140.2 528.336 140.2 528.236 140.2V140.4C528.136 140.5 528.136 140.5 528.036 140.5C528.036 140.6 528.036 140.6 527.936 140.7H528.236C528.236 140.6 528.236 140.5 528.236 140.5H528.436C528.336 140.5 528.336 140.6 528.236 140.7C528.136 140.8 528.036 140.9 527.936 140.9V140.7C527.936 140.7 527.836 140.7 527.836 140.8C527.836 140.8 527.936 140.9 527.936 141C526.236 142.4 524.736 144.1 523.236 145.7C523.136 145.8 523.036 145.9 522.936 145.9C522.936 145.9 522.936 145.8 522.936 145.7H522.736C522.736 145.8 522.736 145.9 522.736 146H522.936C522.836 146 522.836 146.1 522.736 146.2C522.636 146.3 522.536 146.4 522.436 146.4C522.436 146.4 522.436 146.3 522.436 146.2H522.236C522.236 146.3 522.236 146.4 522.236 146.5H522.436C522.336 146.5 522.336 146.6 522.236 146.7C522.136 146.8 522.036 146.9 521.936 146.9C521.936 146.9 521.936 146.8 521.936 146.7H521.736C521.736 146.8 521.736 146.9 521.736 147H521.936C521.836 147 521.836 147.1 521.736 147.2C521.636 147.3 521.536 147.4 521.436 147.4V147.2C521.336 147.2 521.336 147.2 521.236 147.2L521.436 147.5C521.136 147.9 520.736 148.2 520.236 148.4C520.436 147.9 520.736 147.5 521.236 147.2ZM540.236 134.9V135H540.436C540.436 134.9 540.336 134.9 540.236 134.9ZM540.536 135V134.9C540.536 134.9 540.536 134.9 540.436 135H540.536ZM533.036 136C533.036 136.1 533.036 136.1 532.936 136.2H533.236C533.136 136.1 533.036 136.1 533.036 136ZM532.836 136.2C532.836 136.3 532.936 136.4 532.936 136.4C532.936 136.4 532.936 136.3 532.936 136.2H532.836ZM518.436 171.9C516.936 174.6 515.536 177.2 514.036 179.8C513.536 180.7 513.036 181.6 512.536 182.4C510.236 186.1 507.936 189.8 504.836 192.9C503.836 193.9 502.836 194.8 501.636 195.5C500.636 196.1 500.236 196 499.636 195C499.036 194 498.736 192.8 498.536 191.7C498.136 189.3 498.836 186.9 499.536 184.7L501.036 180.4C501.136 180.1 501.436 179.7 501.436 179.3L500.636 180.2C500.836 179.4 501.036 178.6 501.636 178V178.8C502.236 178 502.736 177.1 503.136 176.2C503.636 175.1 504.236 174 504.936 173C505.436 172.3 505.736 171.6 505.936 170.8C506.136 170.6 506.136 170.4 506.236 170.3C506.436 170.1 506.636 169.8 506.736 169.5C507.336 168.9 507.736 168.3 507.936 167.5C507.636 167.8 507.236 168.2 506.936 168.5L506.636 169.5C506.436 169.7 506.236 170 506.136 170.3C506.136 170.4 506.036 170.6 505.936 170.7L505.436 171C505.336 171.5 505.036 171.9 504.736 172.3C504.436 173.1 504.036 173.9 503.436 174.5C503.436 174.7 503.336 174.9 503.136 175C503.136 175.4 502.936 175.7 502.736 176C502.636 175.6 502.836 175.3 503.136 175C503.136 174.8 503.236 174.6 503.436 174.5C503.636 173.6 504.136 172.9 504.636 172.2C504.736 171.7 504.936 171.3 505.436 171C505.636 170 506.236 169.2 506.936 168.5C507.136 167.7 507.636 167.1 508.136 166.4C508.236 166.1 508.336 165.9 508.636 165.7C508.736 165.4 508.836 165.1 509.136 164.9C509.236 164.6 509.336 164.4 509.636 164.2C509.736 163.9 509.936 163.6 510.136 163.5C510.436 162.8 510.936 162.2 511.336 161.7C511.436 161.4 511.636 161.1 511.936 161C512.036 160.6 512.336 160.2 512.636 159.9C512.836 159.5 513.036 159.2 513.336 158.9C513.536 158.5 513.836 158.2 514.136 157.9C514.336 157.5 514.536 157.2 514.936 156.9C515.836 155.5 516.936 154.1 518.136 152.9C518.536 152.2 519.036 151.7 519.636 151.1C520.136 150.4 520.736 149.7 521.336 149.1L521.636 148.9C522.536 147.7 523.536 146.7 524.636 145.6C524.736 145.5 524.836 145.5 524.836 145.4C524.836 145.3 525.036 145.2 525.136 145.1C525.236 145 525.336 145 525.336 144.9C526.036 144 526.836 143.3 527.636 142.6C527.736 142.5 527.836 142.5 527.936 142.4L528.136 142.1C528.236 142 528.336 142 528.436 141.9L528.636 141.6C528.736 141.5 528.836 141.5 528.936 141.4L529.136 141.1C529.936 140.3 530.736 139.5 531.636 138.9C532.236 138.2 532.936 137.6 533.636 137.1C533.836 136.9 533.936 136.6 534.336 136.6C534.536 136.6 534.336 136.9 533.836 137.3C533.336 137.9 532.636 138.3 532.236 138.9C532.036 139 531.936 139 531.836 139L530.436 140.5C531.236 140.2 531.836 139.7 532.236 139C532.736 138.9 533.036 138.2 533.536 138.2H533.836C533.936 138.2 534.036 138.4 533.936 138.5C533.836 138.6 533.936 138.9 533.836 139C532.836 140 532.836 141.7 532.136 142.9C531.336 144.3 530.836 145.9 530.236 147.4C529.336 149.7 528.236 151.8 527.236 154C526.436 155.8 525.536 157.5 524.736 159.3C524.336 160.2 523.836 161 523.436 161.9C521.936 165.3 520.236 168.6 518.436 171.9ZM529.236 139.7C529.136 139.6 529.036 139.5 528.936 139.5C528.936 139.5 528.936 139.6 528.936 139.7H529.236ZM534.736 140.3C534.636 140.5 534.636 140.7 534.536 140.9C534.536 140.7 534.636 140.5 534.736 140.3ZM530.236 140.7C530.036 140.8 529.836 140.9 529.736 141.2C530.036 141.1 530.136 141 530.236 140.7ZM525.436 145.7L529.236 142C529.436 141.8 529.636 141.5 529.736 141.2C529.536 141.2 529.436 141.3 529.336 141.3C529.236 141.4 529.136 141.5 529.036 141.5C528.936 141.5 528.936 141.7 528.836 141.8C528.736 141.9 528.636 142 528.536 142L528.336 142.3C528.236 142.4 528.136 142.4 528.036 142.5L527.736 142.8C527.136 143.6 526.336 144.3 525.536 145C525.436 145.1 525.336 145.2 525.336 145.3C525.336 145.4 525.136 145.5 525.036 145.6L524.836 145.8C524.736 145.9 524.736 146.1 524.736 146.2C525.036 146.2 525.236 145.9 525.436 145.7ZM537.536 141.5L537.436 141.4V141.5H537.536ZM534.236 142.8C534.136 143 534.036 143.2 534.036 143.4L533.936 142.7C533.836 142.9 533.636 143 533.536 143.2C533.436 142.7 533.736 142.4 533.936 142V142.7C534.036 142.7 534.136 142.8 534.236 142.8ZM537.036 143.2C537.136 143.1 537.136 142.9 537.236 142.8C537.136 142.8 537.036 142.7 537.036 142.7V143.2ZM523.436 164.9L523.736 164.1C524.236 162.6 525.136 161.2 525.836 159.7L526.136 159.2C526.236 159 526.236 158.8 526.336 158.6C528.036 155.2 529.936 151.8 531.136 148.1C531.236 147.8 531.536 147.5 531.636 147.2C531.836 146.4 532.236 145.6 532.636 144.9C532.836 144.3 533.036 143.7 533.436 143.2C533.436 143.5 533.436 143.7 533.436 144H533.736C533.636 144.1 533.536 144.3 533.536 144.4C533.436 144.3 533.436 144.1 533.436 144C533.436 144.1 533.336 144.3 533.236 144.5H533.436C533.436 144.9 533.236 145.3 533.036 145.7C533.036 145.4 533.036 145.2 533.036 145H532.736C532.736 145.2 532.736 145.5 532.736 145.7H532.936C532.936 145.9 532.836 146.1 532.736 146.2C532.736 146.4 532.636 146.6 532.536 146.7C532.536 146.5 532.536 146.4 532.436 146.2C532.436 146.4 532.336 146.6 532.236 146.7H532.436C532.436 147.2 532.236 147.6 532.036 147.9V147.2C531.936 147.2 531.836 147.3 531.736 147.3C531.736 147.5 531.736 147.7 531.736 148H531.936C531.936 148.2 531.836 148.3 531.736 148.5C531.736 148.7 531.636 148.8 531.436 149C531.436 149.6 531.136 150.2 530.736 150.7C530.736 150.9 530.736 151.1 530.436 151.2C530.336 152.1 530.036 152.8 529.436 153.5C529.436 153.7 529.336 153.8 529.236 154C529.136 154.2 529.136 154.3 528.936 154.5C528.936 154.7 528.836 154.9 528.736 155C528.636 155.4 528.436 155.8 528.236 156.2C528.136 156.4 528.036 156.5 527.936 156.7L527.736 157.2C527.636 157.4 527.536 157.6 527.436 157.7V157.2C527.336 157.4 527.336 157.6 527.236 157.7C526.836 158.2 526.736 158.8 526.336 159.3C526.236 159.5 526.236 159.8 526.236 160C525.436 161.1 524.836 162.3 524.336 163.5C524.136 164 523.836 164.5 523.436 164.9ZM536.936 143.2H536.736C536.836 143.3 536.936 143.3 536.936 143.2ZM523.236 145.7C523.136 145.6 523.036 145.5 522.936 145.5C522.936 145.6 522.936 145.6 522.936 145.7H523.236ZM532.736 146.2V145.7C532.636 145.9 532.536 146.1 532.436 146.2H532.736ZM522.736 146.2C522.736 146.1 522.736 146 522.736 146H522.436C522.436 146.1 522.436 146.1 522.436 146.2H522.736ZM524.436 146.4C524.236 146.5 524.036 146.7 523.936 147C524.236 146.9 524.436 146.7 524.436 146.4ZM522.236 146.7C522.236 146.6 522.236 146.5 522.236 146.5H521.936C521.936 146.6 521.936 146.6 521.936 146.7H522.236ZM521.736 147.2C521.736 147.1 521.736 147 521.736 147H521.436C521.436 147.1 521.436 147.1 521.436 147.2H521.736ZM522.836 148C522.436 148.4 522.136 148.7 521.736 149C521.736 149.1 521.636 149.2 521.536 149.3C521.536 149.4 521.536 149.6 521.436 149.7C522.236 149.3 522.736 148.6 523.336 148C523.636 147.7 523.636 147.5 523.736 147.2C523.336 147.4 523.136 147.7 522.836 148ZM531.736 148.5V148C531.636 148.1 531.536 148.3 531.436 148.5H531.736ZM516.436 152.7L516.736 152.5C516.736 152.4 516.836 152.3 516.936 152.2C517.036 151.8 517.336 151.5 517.736 151.2L517.936 151C518.036 150.9 518.136 150.8 518.236 150.7L518.436 150.5C518.536 150 518.836 149.7 519.236 149.5C519.336 149.4 519.336 149.3 519.436 149.2L519.736 149C519.836 148.9 519.836 148.8 519.936 148.7L520.236 148.5C520.236 148.6 520.236 148.6 520.236 148.7H519.936C519.936 148.8 519.936 148.9 519.936 149H520.236C520.136 149 520.036 149.1 519.936 149.2C519.836 149.3 519.836 149.4 519.736 149.4C519.736 149.4 519.736 149.3 519.736 149.2H519.436C519.436 149.3 519.436 149.4 519.436 149.5H519.636C519.636 149.6 519.536 149.6 519.436 149.7L518.736 150.7C518.636 150.6 518.536 150.5 518.436 150.5C518.436 150.6 518.436 150.6 518.436 150.7H518.636C518.636 150.8 518.536 150.9 518.436 150.9V150.7C518.336 150.7 518.336 150.7 518.236 150.7V151C518.236 151 518.336 151 518.436 151L518.236 151.2C518.236 151.1 518.236 151.1 518.236 151H517.936C517.936 151.1 517.936 151.1 517.936 151.2H518.136C518.136 151.3 518.036 151.4 517.936 151.5C517.736 151.8 517.436 152.1 517.236 152.5C517.136 152.4 517.036 152.3 516.936 152.3C516.936 152.3 516.936 152.4 516.936 152.5H517.136C517.136 152.6 517.036 152.6 516.936 152.7C516.836 152.8 516.736 152.9 516.736 153H516.636C516.536 153.2 516.236 153.4 515.936 153.4C516.036 153.2 516.236 152.9 516.436 152.7ZM531.136 148.9H531.236C531.336 148.9 531.336 149 531.436 149C531.436 148.8 531.436 148.6 531.436 148.5L531.136 148.9ZM531.136 148.9V149C531.236 149 531.236 149 531.136 148.9ZM519.936 149.2C519.936 149.1 519.936 149 519.936 149H519.736C519.736 149.1 519.736 149.1 519.736 149.2H519.936ZM519.436 149.7C519.436 149.6 519.436 149.5 519.436 149.5H519.236C519.236 149.6 519.336 149.6 519.436 149.7ZM519.836 151.3C519.736 151.4 519.736 151.6 519.736 151.7C520.336 151.4 520.736 150.8 521.236 150.3C521.336 150.2 521.436 150 521.436 149.7C520.736 150.1 520.436 150.8 519.836 151.3ZM530.136 151.2C530.236 151.2 530.236 151.2 530.236 151.1C530.336 151.2 530.336 151.2 530.436 151.2C530.436 151 530.436 150.9 530.436 150.7L530.136 151.2ZM517.936 151.2H517.736C517.736 151.3 517.836 151.4 517.936 151.5V151.2ZM530.236 151.2H530.136C530.236 151.3 530.236 151.3 530.236 151.2ZM518.336 153C518.236 153.2 518.236 153.3 518.236 153.5C518.836 153 519.436 152.5 519.736 151.7C519.136 152 518.836 152.7 518.336 153ZM516.936 152.7C516.936 152.6 516.936 152.6 516.936 152.5H516.736C516.736 152.6 516.736 152.6 516.736 152.7H516.936ZM516.736 152.7H516.436C516.536 152.8 516.636 152.9 516.736 153V152.7ZM529.236 153.5H529.436C529.436 153.4 529.336 153.4 529.236 153.5ZM515.736 153.7L515.936 153.5C515.936 153.6 515.936 153.6 515.936 153.7H515.736C515.736 153.8 515.636 153.9 515.636 154C515.636 154 515.536 154 515.436 153.9C515.536 153.9 515.636 153.8 515.736 153.7ZM517.236 154.7C517.636 154.4 518.036 154.1 518.236 153.5C517.736 153.8 517.336 154.2 517.236 154.7ZM528.936 154H529.236C529.236 153.8 529.236 153.6 529.236 153.5L528.936 154ZM528.736 154.5H528.936C528.936 154.3 528.936 154.1 528.936 154L528.736 154.5ZM514.736 155C514.736 154.7 514.936 154.5 515.136 154.3C515.036 154.5 515.036 154.7 514.936 155H514.736C514.736 155.1 514.636 155.1 514.636 155.2C514.636 155.2 514.536 155.2 514.436 155.2L514.736 155ZM516.936 155C516.636 155.2 516.336 155.5 516.236 156C516.636 155.7 516.836 155.4 516.936 155ZM513.936 159.1C514.236 158.5 514.836 158.1 515.136 157.6C515.436 157.1 516.036 156.7 516.236 156C515.736 156.2 515.436 156.7 515.036 157C514.836 157.4 514.636 157.8 514.236 158C514.136 158.4 513.836 158.8 513.536 159.1C513.536 159.2 513.436 159.3 513.436 159.5C513.636 159.4 513.836 159.3 513.936 159.1ZM513.936 156C513.936 156.1 513.936 156.1 513.936 156.2H513.736C513.736 156.1 513.836 156.1 513.936 156ZM527.936 156.2H528.236C528.136 156.1 528.036 156.1 527.936 156.2ZM513.636 156.2V156.5C513.636 156.5 513.536 156.4 513.436 156.4C513.536 156.4 513.636 156.3 513.636 156.2ZM527.736 156.7C527.836 156.7 527.836 156.7 527.936 156.7V156.2C527.836 156.4 527.836 156.6 527.736 156.7ZM527.436 157.2C527.536 157.2 527.636 157.2 527.736 157.2V156.7C527.636 156.9 527.536 157.1 527.436 157.2ZM512.736 157.5C512.736 157.4 512.836 157.3 512.936 157.2C513.036 157.1 513.136 157.1 513.136 157C513.136 157.1 513.136 157.1 513.136 157.2H512.936C512.936 157.3 512.936 157.4 512.936 157.5H513.136C513.136 157.6 513.036 157.6 512.936 157.7C512.736 157.8 512.636 157.9 512.436 157.9L512.736 157.5ZM512.936 157.7C512.936 157.6 512.936 157.6 512.936 157.5H512.736C512.736 157.6 512.836 157.6 512.936 157.7ZM512.136 158.3V158.5C512.136 158.5 512.036 158.5 511.936 158.4C512.036 158.4 512.136 158.3 512.136 158.3ZM513.436 159.5C513.236 159.7 513.036 159.9 512.736 160C512.636 160.4 512.336 160.8 512.036 161C511.936 161.3 511.736 161.6 511.536 161.8C511.436 161.9 511.436 162.1 511.436 162.2C512.436 161.5 513.036 160.6 513.436 159.5ZM510.736 160.2L510.936 160C510.936 160.1 510.936 160.2 510.936 160.2H510.736C510.736 160.3 510.836 160.4 510.936 160.5L510.436 160.7C510.536 160.6 510.636 160.4 510.736 160.2ZM526.236 164C526.236 163.6 526.336 163.3 526.536 163L527.336 161.8C527.136 162.2 526.936 162.7 526.836 163.1C526.736 163.4 526.536 163.8 526.236 164ZM511.436 162.2C511.136 162.4 511.036 162.7 510.936 163C511.236 162.8 511.436 162.6 511.436 162.2ZM508.236 167C508.436 166.8 508.636 166.6 508.736 166.2C509.036 166.1 509.136 165.8 509.236 165.5C510.036 164.8 510.536 164 510.936 163C510.736 163.2 510.436 163.4 510.236 163.5C510.136 163.8 510.036 164.1 509.736 164.3C509.736 164.6 509.536 164.9 509.336 165.1C509.236 165.2 509.236 165.4 509.136 165.5C509.036 165.6 508.936 165.7 508.736 165.8C508.736 166 508.736 166.1 508.636 166.2C508.536 166.3 508.436 166.4 508.236 166.5C508.236 166.7 508.236 166.8 508.136 167C508.036 167.1 507.936 167.3 507.936 167.5C508.136 167.4 508.136 167.2 508.236 167ZM525.436 165.5C525.336 166.3 525.036 166.9 524.436 167.4C524.636 166.7 524.936 166.1 525.436 165.5C525.536 165.1 525.736 164.8 525.936 164.6C525.936 164.9 525.836 165.3 525.436 165.5ZM507.436 165C507.436 165.2 507.336 165.3 507.236 165.4C507.336 165.3 507.336 165.2 507.436 165ZM506.936 165.8C506.936 166 506.836 166.1 506.736 166.2C506.736 166.1 506.836 165.9 506.936 165.8ZM502.636 176.1C502.436 176.8 502.136 177.4 501.736 178C501.736 177.2 502.036 176.6 502.636 176.1ZM501.436 179.3C501.536 179.1 501.636 179 501.636 178.8C501.536 178.9 501.436 179.1 501.436 179.3ZM500.436 180.8C500.436 180.6 500.536 180.4 500.636 180.3C500.636 180.5 500.636 180.6 500.436 180.8C500.436 181.3 500.236 181.6 499.936 182C499.936 181.5 500.036 181.1 500.436 180.8ZM499.936 182.1C499.736 182.7 499.636 183.4 499.136 183.9C499.336 183.3 499.436 182.6 499.936 182.1ZM499.136 184C499.136 184.3 499.136 184.7 498.936 184.9C498.936 184.6 499.036 184.3 499.136 184Z" fill="black"/>
</g>
<defs>
<clipPath id="clip0">
<rect width="572" height="215" fill="white"/>
</clipPath>
</defs>
</svg>
